<svg width="232" height="320" viewBox="0 0 232 320" fill="none" xmlns="http://www.w3.org/2000/svg">
<g clip-path="url(#clip0_1218_36085)">
<rect x="2" y="4" width="228.557" height="298" rx="17.4257" fill="black"/>
<g clip-path="url(#clip1_1218_36085)">
<path d="M98.9195 7.32599V6.68119L101.335 2.70063H102.419V6.67259H103.167V7.32599H102.419V8.71875H101.731V7.32599H98.9195ZM99.6331 6.67259H101.731V3.24226H101.714L99.6331 6.67259ZM104.231 9.63006V9.24319C104.558 9.183 104.644 8.99386 104.644 8.71875H104.231V7.70427H105.245V8.58979C105.245 9.15721 104.979 9.57848 104.231 9.63006ZM106.302 7.32599V6.68119L108.718 2.70063H109.801V6.67259H110.549V7.32599H109.801V8.71875H109.114V7.32599H106.302ZM107.016 6.67259H109.114V3.24226H109.097L107.016 6.67259ZM113.711 8.19431C114.606 8.19431 115.104 7.61829 115.104 6.74997C115.104 5.89023 114.563 5.32281 113.686 5.32281C112.852 5.32281 112.25 5.97621 112.25 6.66399C112.25 7.54952 112.86 8.19431 113.711 8.19431ZM115.5 4.10199L114.846 4.27394C114.692 3.68073 114.356 3.21647 113.634 3.21647C112.843 3.21647 112.061 3.99023 112.052 5.70969L112.061 5.71829C112.164 5.46037 112.68 4.721 113.772 4.721C114.846 4.721 115.792 5.47756 115.792 6.74137C115.792 8.09115 114.881 8.84771 113.711 8.84771C112.516 8.84771 111.313 8.01377 111.313 5.80426C111.313 3.89566 112.301 2.57167 113.651 2.57167C114.777 2.57167 115.345 3.31104 115.5 4.10199ZM116.756 8.71875V8.17712C116.756 7.61829 116.841 7.21422 117.065 6.88752C117.314 6.50064 117.761 6.22553 118.406 5.88164C119.446 5.31421 119.971 5.0477 119.971 4.28254C119.971 3.7667 119.627 3.21647 118.75 3.21647C117.968 3.21647 117.452 3.71512 117.409 4.60924L116.721 4.54046C116.773 3.27665 117.615 2.57167 118.767 2.57167C120.005 2.57167 120.659 3.37982 120.659 4.31693C120.659 5.47756 119.765 5.89023 118.982 6.3115C118.277 6.69838 117.899 6.87033 117.684 7.20562C117.546 7.42056 117.512 7.65268 117.512 8.00517H120.676V8.71875H116.756ZM121.952 8.71875V7.70427H122.966V8.71875H121.952ZM126.396 8.84771C125.003 8.84771 124.152 7.71286 124.152 5.63232C124.152 3.60335 125.098 2.57167 126.396 2.57167C127.686 2.57167 128.632 3.60335 128.632 5.63232C128.632 7.71286 127.78 8.84771 126.396 8.84771ZM126.396 8.19431C127.394 8.19431 127.909 7.23142 127.909 5.62372C127.909 4.0762 127.351 3.22507 126.396 3.22507C125.433 3.22507 124.883 4.0762 124.883 5.62372C124.883 7.23142 125.39 8.19431 126.396 8.19431ZM131.679 8.84771C130.286 8.84771 129.435 7.71286 129.435 5.63232C129.435 3.60335 130.38 2.57167 131.679 2.57167C132.968 2.57167 133.914 3.60335 133.914 5.63232C133.914 7.71286 133.063 8.84771 131.679 8.84771ZM131.679 8.19431C132.676 8.19431 133.192 7.23142 133.192 5.62372C133.192 4.0762 132.633 3.22507 131.679 3.22507C130.716 3.22507 130.166 4.0762 130.166 5.62372C130.166 7.23142 130.673 8.19431 131.679 8.19431Z" fill="white"/>
<g opacity="0.4">
<g opacity="0.6">
<rect x="147.581" y="-6.60405" width="24.6456" height="24.6456" rx="0.859731" fill="#FF4C4C" fill-opacity="0.4"/>
<rect x="147.581" y="-6.60405" width="24.6456" height="24.6456" rx="0.859731" stroke="#FF4C4C" stroke-width="0.573154"/>
</g>
<path d="M177.36 6.51169V5.95286L179.453 2.50305H180.392V5.94541H181.04V6.51169H180.392V7.71875H179.796V6.51169H177.36ZM177.978 5.94541H179.796V2.97246H179.781L177.978 5.94541ZM181.697 6.51169V5.95286L183.791 2.50305H184.73V5.94541H185.378V6.51169H184.73V7.71875H184.134V6.51169H181.697ZM182.316 5.94541H184.134V2.97246H184.119L182.316 5.94541Z" fill="#FF4C4C"/>
</g>
<path d="M100.321 34.8377V34.1929L102.737 30.2124H103.82V34.1843H104.568V34.8377H103.82V36.2305H103.132V34.8377H100.321ZM101.034 34.1843H103.132V30.754H103.115L101.034 34.1843ZM105.632 37.1418V36.7549C105.959 36.6947 106.045 36.5056 106.045 36.2305H105.632V35.216H106.647V36.1015C106.647 36.6689 106.38 37.0902 105.632 37.1418ZM107.704 34.8377V34.1929L110.119 30.2124H111.203V34.1843H111.951V34.8377H111.203V36.2305H110.515V34.8377H107.704ZM108.417 34.1843H110.515V30.754H110.498L108.417 34.1843ZM115.113 35.706C116.007 35.706 116.505 35.13 116.505 34.2617C116.505 33.402 115.964 32.8345 115.087 32.8345C114.253 32.8345 113.651 33.4879 113.651 34.1757C113.651 35.0612 114.261 35.706 115.113 35.706ZM116.901 31.6137L116.247 31.7857C116.093 31.1924 115.757 30.7282 115.035 30.7282C114.244 30.7282 113.462 31.5019 113.453 33.2214L113.462 33.23C113.565 32.9721 114.081 32.2327 115.173 32.2327C116.247 32.2327 117.193 32.9893 117.193 34.2531C117.193 35.6029 116.282 36.3594 115.113 36.3594C113.918 36.3594 112.714 35.5255 112.714 33.316C112.714 31.4074 113.703 30.0834 115.052 30.0834C116.179 30.0834 116.746 30.8228 116.901 31.6137ZM119.506 36.2305V31.0291L118.208 31.8458V31.0721L119.592 30.2124H120.168V36.2305H119.506ZM122.262 36.2305V35.216H123.276V36.2305H122.262ZM124.333 36.2305L127.282 30.8915V30.8743H124.204V30.2124H127.996V30.9517L125.15 36.2305H124.333ZM128.713 34.6916L129.392 34.4508C129.581 35.1472 130.002 35.706 130.862 35.706C131.713 35.706 132.263 35.1472 132.263 34.2101C132.263 33.316 131.705 32.7915 130.897 32.7915C130.183 32.7915 129.77 33.1784 129.555 33.5137L128.919 33.2386L129.461 30.2124H132.427V30.8657H130.002L129.659 32.7658L129.667 32.7744C129.882 32.4906 130.355 32.2069 131.043 32.2069C132.066 32.2069 132.96 32.9807 132.96 34.2187C132.96 35.5427 132.057 36.3594 130.862 36.3594C129.701 36.3594 128.971 35.6459 128.713 34.6916Z" fill="white"/>
<g opacity="0.4">
<g opacity="0.7">
<rect x="147.581" y="20.9077" width="17.7678" height="24.6456" rx="0.859731" fill="#FF4C4C" fill-opacity="0.4"/>
<rect x="147.581" y="20.9077" width="17.7678" height="24.6456" rx="0.859731" stroke="#FF4C4C" stroke-width="0.573154"/>
</g>
<path d="M170.556 33.5167L171.16 33.3975C171.279 34.3289 171.629 34.7834 172.434 34.7834C173.239 34.7834 173.589 34.2916 173.589 33.7626C173.589 33.025 173.194 32.7046 172.449 32.7046H172.076V32.1681H172.233C172.516 32.1681 173.41 32.1309 173.41 31.3336C173.41 30.7897 173.038 30.4618 172.441 30.4618C171.838 30.4618 171.488 30.8418 171.406 31.4528L170.825 31.3485C170.914 30.4693 171.562 29.903 172.449 29.903C173.321 29.903 174.006 30.3873 174.006 31.2963C174.006 31.9371 173.552 32.2873 173.194 32.3767V32.3916C173.708 32.5109 174.185 32.9654 174.185 33.7775C174.185 34.6791 173.477 35.3422 172.441 35.3422C171.443 35.3422 170.705 34.8058 170.556 33.5167ZM175.014 35.2305V34.7611C175.014 34.2767 175.088 33.9265 175.282 33.6434C175.498 33.3081 175.885 33.0697 176.444 32.7716C177.346 32.2799 177.8 32.0489 177.8 31.3858C177.8 30.9387 177.502 30.4618 176.742 30.4618C176.064 30.4618 175.617 30.894 175.58 31.6689L174.984 31.6093C175.029 30.514 175.759 29.903 176.757 29.903C177.83 29.903 178.396 30.6034 178.396 31.4156C178.396 32.4214 177.622 32.7791 176.944 33.1442C176.333 33.4795 176.005 33.6285 175.818 33.9191C175.699 34.1054 175.669 34.3065 175.669 34.612H178.411V35.2305H175.014Z" fill="#FF4C4C"/>
</g>
<path d="M99.7461 62.3494V61.7046L102.162 57.7241H103.245V61.696H103.993V62.3494H103.245V63.7422H102.557V62.3494H99.7461ZM100.46 61.696H102.557V58.2657H102.54L100.46 61.696ZM105.057 64.6535V64.2666C105.384 64.2064 105.47 64.0173 105.47 63.7422H105.057V62.7277H106.072V63.6132C106.072 64.1807 105.805 64.6019 105.057 64.6535ZM107.129 62.3494V61.7046L109.545 57.7241H110.628V61.696H111.376V62.3494H110.628V63.7422H109.94V62.3494H107.129ZM107.842 61.696H109.94V58.2657H109.923L107.842 61.696ZM114.538 63.2178C115.432 63.2178 115.931 62.6417 115.931 61.7734C115.931 60.9137 115.389 60.3462 114.512 60.3462C113.678 60.3462 113.076 60.9996 113.076 61.6874C113.076 62.573 113.687 63.2178 114.538 63.2178ZM116.326 59.1254L115.673 59.2974C115.518 58.7042 115.183 58.2399 114.461 58.2399C113.67 58.2399 112.887 59.0137 112.879 60.7331L112.887 60.7417C112.99 60.4838 113.506 59.7444 114.598 59.7444C115.673 59.7444 116.619 60.501 116.619 61.7648C116.619 63.1146 115.707 63.8711 114.538 63.8711C113.343 63.8711 112.139 63.0372 112.139 60.8277C112.139 58.9191 113.128 57.5951 114.478 57.5951C115.604 57.5951 116.171 58.3345 116.326 59.1254ZM118.932 63.7422V58.5408L117.634 59.3576V58.5838L119.018 57.7241H119.594V63.7422H118.932ZM121.687 63.7422V62.7277H122.701V63.7422H121.687ZM123.93 62.2033L124.61 61.9625C124.799 62.6589 125.22 63.2178 126.08 63.2178C126.931 63.2178 127.481 62.6589 127.481 61.7218C127.481 60.8277 126.922 60.3033 126.114 60.3033C125.401 60.3033 124.988 60.6901 124.773 61.0254L124.137 60.7503L124.678 57.7241H127.644V58.3775H125.22L124.876 60.2775L124.885 60.2861C125.1 60.0024 125.572 59.7186 126.26 59.7186C127.283 59.7186 128.177 60.4924 128.177 61.7304C128.177 63.0544 127.275 63.8711 126.08 63.8711C124.919 63.8711 124.188 63.1576 123.93 62.2033ZM131.179 63.8711C129.786 63.8711 128.935 62.7363 128.935 60.6558C128.935 58.6268 129.88 57.5951 131.179 57.5951C132.468 57.5951 133.414 58.6268 133.414 60.6558C133.414 62.7363 132.563 63.8711 131.179 63.8711ZM131.179 63.2178C132.176 63.2178 132.692 62.2549 132.692 60.6472C132.692 59.0996 132.133 58.2485 131.179 58.2485C130.216 58.2485 129.666 59.0996 129.666 60.6472C129.666 62.2549 130.173 63.2178 131.179 63.2178Z" fill="white"/>
<g opacity="0.4">
<g opacity="0.9">
<rect x="147.581" y="48.4194" width="44.1329" height="24.6456" rx="0.859731" fill="#FF4C4C" fill-opacity="0.4"/>
<rect x="147.581" y="48.4194" width="44.1329" height="24.6456" rx="0.859731" stroke="#FF4C4C" stroke-width="0.573154"/>
</g>
<path d="M196.847 62.7422L199.403 58.1151V58.1002H196.735V57.5265H200.021V58.1673L197.555 62.7422H196.847ZM202.379 57.9586C201.701 57.9586 201.41 58.3759 201.41 58.8155C201.41 59.3073 201.79 59.6873 202.379 59.6873C202.96 59.6873 203.34 59.3073 203.34 58.8155C203.34 58.3759 203.057 57.9586 202.379 57.9586ZM202.379 62.854C201.306 62.854 200.531 62.2951 200.531 61.2669C200.531 60.5739 201.023 60.0747 201.507 59.9183V59.9034C201.149 59.7543 200.814 59.3743 200.814 58.7559C200.814 58.0779 201.388 57.4147 202.379 57.4147C203.37 57.4147 203.943 58.0779 203.943 58.7559C203.943 59.3743 203.593 59.7543 203.25 59.9034V59.9183C203.75 60.0896 204.212 60.5739 204.212 61.2669C204.212 62.2951 203.452 62.854 202.379 62.854ZM202.379 62.2728C203.146 62.2728 203.586 61.8332 203.586 61.2445C203.586 60.6187 203.086 60.1939 202.379 60.1939C201.671 60.1939 201.164 60.6112 201.164 61.2445C201.164 61.8332 201.611 62.2728 202.379 62.2728Z" fill="#FF4C4C"/>
</g>
<path d="M100.099 89.8611V89.2163L102.515 85.2358H103.598V89.2077H104.346V89.8611H103.598V91.2539H102.91V89.8611H100.099ZM100.812 89.2077H102.91V85.7774H102.893L100.812 89.2077ZM105.41 92.1652V91.7783C105.737 91.7182 105.823 91.529 105.823 91.2539H105.41V90.2394H106.424V91.1249C106.424 91.6924 106.158 92.1136 105.41 92.1652ZM107.482 89.8611V89.2163L109.897 85.2358H110.981V89.2077H111.729V89.8611H110.981V91.2539H110.293V89.8611H107.482ZM108.195 89.2077H110.293V85.7774H110.276L108.195 89.2077ZM114.891 90.7295C115.785 90.7295 116.283 90.1535 116.283 89.2851C116.283 88.4254 115.742 87.858 114.865 87.858C114.031 87.858 113.429 88.5114 113.429 89.1991C113.429 90.0847 114.039 90.7295 114.891 90.7295ZM116.679 86.6372L116.025 86.8091C115.871 86.2159 115.535 85.7516 114.813 85.7516C114.022 85.7516 113.24 86.5254 113.231 88.2448L113.24 88.2534C113.343 87.9955 113.859 87.2562 114.951 87.2562C116.025 87.2562 116.971 88.0127 116.971 89.2765C116.971 90.6263 116.06 91.3829 114.891 91.3829C113.696 91.3829 112.492 90.5489 112.492 88.3394C112.492 86.4308 113.481 85.1068 114.83 85.1068C115.957 85.1068 116.524 85.8462 116.679 86.6372ZM119.284 91.2539V86.0525L117.986 86.8693V86.0955L119.37 85.2358H119.946V91.2539H119.284ZM122.04 91.2539V90.2394H123.054V91.2539H122.04ZM124.36 91.2539V90.7123C124.36 90.1535 124.446 89.7494 124.67 89.4227C124.919 89.0358 125.366 88.7607 126.011 88.4168C127.051 87.8494 127.576 87.5829 127.576 86.8177C127.576 86.3019 127.232 85.7516 126.355 85.7516C125.573 85.7516 125.057 86.2503 125.014 87.1444L124.326 87.0756C124.378 85.8118 125.22 85.1068 126.372 85.1068C127.61 85.1068 128.264 85.915 128.264 86.8521C128.264 88.0127 127.369 88.4254 126.587 88.8467C125.882 89.2335 125.504 89.4055 125.289 89.7408C125.151 89.9557 125.117 90.1878 125.117 90.5403H128.281V91.2539H124.36ZM129.213 89.715L129.892 89.4743C130.081 90.1706 130.502 90.7295 131.362 90.7295C132.213 90.7295 132.763 90.1706 132.763 89.2335C132.763 88.3394 132.205 87.815 131.397 87.815C130.683 87.815 130.27 88.2019 130.055 88.5372L129.419 88.262L129.961 85.2358H132.927V85.8892H130.502L130.159 87.7892L130.167 87.7978C130.382 87.5141 130.855 87.2304 131.543 87.2304C132.566 87.2304 133.46 88.0041 133.46 89.2421C133.46 90.5661 132.557 91.3829 131.362 91.3829C130.201 91.3829 129.471 90.6693 129.213 89.715Z" fill="white"/>
<g opacity="0.4">
<g opacity="0.9">
<rect x="147.581" y="75.9311" width="24.6456" height="24.6456" rx="0.859731" fill="#FF4C4C" fill-opacity="0.4"/>
<rect x="147.581" y="75.9311" width="24.6456" height="24.6456" rx="0.859731" stroke="#FF4C4C" stroke-width="0.573154"/>
</g>
<path d="M177.36 89.0468V88.488L179.453 85.0382H180.392V88.4806H181.04V89.0468H180.392V90.2539H179.796V89.0468H177.36ZM177.978 88.4806H179.796V85.5076H179.781L177.978 88.4806ZM181.697 89.0468V88.488L183.791 85.0382H184.73V88.4806H185.378V89.0468H184.73V90.2539H184.134V89.0468H181.697ZM182.316 88.4806H184.134V85.5076H184.119L182.316 88.4806Z" fill="#FF4C4C"/>
</g>
<rect x="93.7594" y="107.619" width="45.1705" height="16.2926" rx="6.87785" fill="#1E2124"/>
<path d="M99.5126 117.614V116.53L101.8 112.748H103.562V116.539H104.267V117.614H103.562V118.766H102.47V117.614H99.5126ZM100.682 116.539H102.47V113.599H102.453L100.682 116.539ZM105.067 119.918V119.333C105.471 119.264 105.489 119.11 105.489 118.766H105.067V117.545H106.348V118.628C106.348 119.324 105.996 119.849 105.067 119.918ZM107.147 117.614V116.53L109.434 112.748H111.197V116.539H111.902V117.614H111.197V118.766H110.105V117.614H107.147ZM108.317 116.539H110.105V113.599H110.088L108.317 116.539ZM113.768 116.728C113.768 117.424 114.198 117.837 114.912 117.837C115.608 117.837 115.96 117.347 115.96 116.737C115.96 116.126 115.582 115.662 114.869 115.662C114.155 115.662 113.768 116.186 113.768 116.728ZM113.579 115.456L113.588 115.464C113.742 115.215 114.215 114.768 115.058 114.768C116.029 114.768 117.035 115.438 117.035 116.78C117.035 118.121 116.055 118.895 114.912 118.895C113.502 118.895 112.401 117.906 112.401 115.817C112.401 114.097 113.321 112.619 114.894 112.619C116.081 112.619 116.665 113.367 116.829 114.175L115.78 114.45C115.625 113.882 115.298 113.65 114.817 113.65C114.086 113.65 113.613 114.381 113.579 115.456ZM119.093 118.766V114.037L117.795 114.854V113.607L119.179 112.748H120.202V118.766H119.093ZM122.033 118.766V117.545H123.314V118.766H122.033ZM126.554 118.895C125.222 118.895 124.242 117.966 124.242 115.662C124.242 113.59 125.222 112.619 126.554 112.619C127.887 112.619 128.867 113.59 128.867 115.662C128.867 117.966 127.887 118.895 126.554 118.895ZM126.554 117.82C127.302 117.82 127.706 117.321 127.706 115.662C127.706 114.235 127.302 113.693 126.554 113.693C125.806 113.693 125.402 114.235 125.402 115.662C125.402 117.321 125.806 117.82 126.554 117.82ZM131.728 118.895C130.395 118.895 129.415 117.966 129.415 115.662C129.415 113.59 130.395 112.619 131.728 112.619C133.06 112.619 134.04 113.59 134.04 115.662C134.04 117.966 133.06 118.895 131.728 118.895ZM131.728 117.82C132.476 117.82 132.88 117.321 132.88 115.662C132.88 114.235 132.476 113.693 131.728 113.693C130.98 113.693 130.576 114.235 130.576 115.662C130.576 117.321 130.98 117.82 131.728 117.82Z" fill="white"/>
<g opacity="0.4">
<rect x="147.581" y="103.443" width="31.5235" height="24.6456" rx="0.859731" fill="#FF4C4C" fill-opacity="0.4"/>
<rect x="147.581" y="103.443" width="31.5235" height="24.6456" rx="0.859731" stroke="#FF4C4C" stroke-width="0.573154"/>
<path d="M184.387 116.432L184.975 116.223C185.139 116.827 185.504 117.311 186.249 117.311C186.987 117.311 187.464 116.827 187.464 116.015C187.464 115.24 186.98 114.785 186.279 114.785C185.661 114.785 185.303 115.121 185.117 115.411L184.565 115.173L185.035 112.55H187.605V113.116H185.504L185.206 114.763L185.214 114.77C185.4 114.524 185.81 114.279 186.406 114.279C187.293 114.279 188.067 114.949 188.067 116.022C188.067 117.17 187.285 117.877 186.249 117.877C185.243 117.877 184.61 117.259 184.387 116.432ZM190.869 117.311C191.644 117.311 192.076 116.812 192.076 116.059C192.076 115.314 191.607 114.822 190.847 114.822C190.124 114.822 189.603 115.389 189.603 115.985C189.603 116.752 190.132 117.311 190.869 117.311ZM192.419 113.764L191.853 113.913C191.719 113.399 191.428 112.997 190.802 112.997C190.117 112.997 189.439 113.668 189.431 115.158L189.439 115.165C189.528 114.942 189.975 114.301 190.922 114.301C191.853 114.301 192.673 114.957 192.673 116.052C192.673 117.222 191.883 117.877 190.869 117.877C189.834 117.877 188.791 117.155 188.791 115.24C188.791 113.586 189.647 112.438 190.817 112.438C191.793 112.438 192.285 113.079 192.419 113.764Z" fill="#FF4C4C"/>
</g>
<g opacity="0.4">
<path d="M46.851 144.068V143.51L48.9447 140.06H49.8836V143.502H50.5318V144.068H49.8836V145.275H49.2875V144.068H46.851ZM47.4694 143.502H49.2875V140.529H49.2726L47.4694 143.502ZM51.1886 144.068V143.51L53.2823 140.06H54.2212V143.502H54.8694V144.068H54.2212V145.275H53.6251V144.068H51.1886ZM51.807 143.502H53.6251V140.529H53.6102L51.807 143.502Z" fill="#CCFF00"/>
<rect x="60.462" y="130.953" width="24.6456" height="24.6456" rx="0.859731" fill="#CCFF00" fill-opacity="0.4"/>
<rect x="60.462" y="130.953" width="24.6456" height="24.6456" rx="0.859731" stroke="#CCFF00" stroke-width="0.573154"/>
</g>
<path d="M99.6369 144.883V144.238L102.053 140.257H103.136V144.229H103.884V144.883H103.136V146.275H102.448V144.883H99.6369ZM100.351 144.229H102.448V140.799H102.431L100.351 144.229ZM104.948 147.187V146.8C105.275 146.74 105.361 146.551 105.361 146.275H104.948V145.261H105.963V146.146C105.963 146.714 105.696 147.135 104.948 147.187ZM107.02 144.883V144.238L109.436 140.257H110.519V144.229H111.267V144.883H110.519V146.275H109.831V144.883H107.02ZM107.733 144.229H109.831V140.799H109.814L107.733 144.229ZM114.429 145.751C115.323 145.751 115.822 145.175 115.822 144.307C115.822 143.447 115.28 142.879 114.403 142.879C113.569 142.879 112.967 143.533 112.967 144.221C112.967 145.106 113.578 145.751 114.429 145.751ZM116.217 141.659L115.564 141.831C115.409 141.237 115.074 140.773 114.351 140.773C113.56 140.773 112.778 141.547 112.77 143.266L112.778 143.275C112.881 143.017 113.397 142.278 114.489 142.278C115.564 142.278 116.509 143.034 116.509 144.298C116.509 145.648 115.598 146.404 114.429 146.404C113.234 146.404 112.03 145.57 112.03 143.361C112.03 141.452 113.019 140.128 114.369 140.128C115.495 140.128 116.062 140.868 116.217 141.659ZM119.596 146.404C118.204 146.404 117.353 145.27 117.353 143.189C117.353 141.16 118.298 140.128 119.596 140.128C120.886 140.128 121.832 141.16 121.832 143.189C121.832 145.27 120.981 146.404 119.596 146.404ZM119.596 145.751C120.594 145.751 121.11 144.788 121.11 143.18C121.11 141.633 120.551 140.782 119.596 140.782C118.634 140.782 118.083 141.633 118.083 143.18C118.083 144.788 118.591 145.751 119.596 145.751ZM122.762 146.275V145.261H123.776V146.275H122.762ZM124.833 146.275L127.782 140.936V140.919H124.704V140.257H128.496V140.997L125.65 146.275H124.833ZM129.213 144.736L129.892 144.496C130.081 145.192 130.502 145.751 131.362 145.751C132.213 145.751 132.763 145.192 132.763 144.255C132.763 143.361 132.205 142.836 131.397 142.836C130.683 142.836 130.27 143.223 130.055 143.559L129.419 143.284L129.961 140.257H132.927V140.911H130.502L130.159 142.811L130.167 142.819C130.382 142.536 130.855 142.252 131.543 142.252C132.566 142.252 133.46 143.026 133.46 144.264C133.46 145.588 132.557 146.404 131.362 146.404C130.201 146.404 129.471 145.691 129.213 144.736Z" fill="white"/>
<g opacity="0.4">
<path d="M49.1436 171.58V171.021L51.2373 167.571H52.1762V171.014H52.8244V171.58H52.1762V172.787H51.5801V171.58H49.1436ZM49.762 171.014H51.5801V168.041H51.5652L49.762 171.014ZM55.3485 172.899C54.1414 172.899 53.4038 171.915 53.4038 170.112C53.4038 168.354 54.2234 167.46 55.3485 167.46C56.4662 167.46 57.2858 168.354 57.2858 170.112C57.2858 171.915 56.5481 172.899 55.3485 172.899ZM55.3485 172.333C56.2128 172.333 56.6599 171.498 56.6599 170.105C56.6599 168.764 56.1756 168.026 55.3485 168.026C54.514 168.026 54.0371 168.764 54.0371 170.105C54.0371 171.498 54.4767 172.333 55.3485 172.333Z" fill="#CCFF00"/>
<g opacity="0.9">
<rect x="62.7546" y="158.464" width="22.353" height="24.6456" rx="0.859731" fill="#CCFF00" fill-opacity="0.4"/>
<rect x="62.7546" y="158.464" width="22.353" height="24.6456" rx="0.859731" stroke="#CCFF00" stroke-width="0.573154"/>
</g>
</g>
<g opacity="0.4">
<path d="M50.3645 198.585L50.968 198.466C51.0872 199.397 51.4374 199.852 52.2421 199.852C53.0468 199.852 53.397 199.36 53.397 198.831C53.397 198.093 53.0021 197.773 52.257 197.773H51.8845V197.236H52.0409C52.3241 197.236 53.2182 197.199 53.2182 196.402C53.2182 195.858 52.8457 195.53 52.2496 195.53C51.646 195.53 51.2958 195.91 51.2139 196.521L50.6327 196.417C50.7221 195.538 51.3704 194.971 52.257 194.971C53.1288 194.971 53.8143 195.456 53.8143 196.365C53.8143 197.005 53.3598 197.356 53.0021 197.445V197.46C53.5162 197.579 53.9931 198.034 53.9931 198.846C53.9931 199.747 53.2853 200.411 52.2496 200.411C51.2511 200.411 50.5135 199.874 50.3645 198.585ZM56.4983 195.515C55.8203 195.515 55.5297 195.933 55.5297 196.372C55.5297 196.864 55.9097 197.244 56.4983 197.244C57.0795 197.244 57.4595 196.864 57.4595 196.372C57.4595 195.933 57.1763 195.515 56.4983 195.515ZM56.4983 200.411C55.4254 200.411 54.6504 199.852 54.6504 198.824C54.6504 198.131 55.1422 197.631 55.6265 197.475V197.46C55.2689 197.311 54.9336 196.931 54.9336 196.313C54.9336 195.635 55.5073 194.971 56.4983 194.971C57.4893 194.971 58.063 195.635 58.063 196.313C58.063 196.931 57.7128 197.311 57.3701 197.46V197.475C57.8693 197.646 58.3312 198.131 58.3312 198.824C58.3312 199.852 57.5712 200.411 56.4983 200.411ZM56.4983 199.829C57.2658 199.829 57.7054 199.39 57.7054 198.801C57.7054 198.175 57.2061 197.751 56.4983 197.751C55.7905 197.751 55.2838 198.168 55.2838 198.801C55.2838 199.39 55.7308 199.829 56.4983 199.829Z" fill="#CCFF00"/>
<g opacity="0.8">
<rect x="63.901" y="185.976" width="21.2067" height="24.6456" rx="0.859731" fill="#CCFF00" fill-opacity="0.4"/>
<rect x="63.901" y="185.976" width="21.2067" height="24.6456" rx="0.859731" stroke="#CCFF00" stroke-width="0.573154"/>
</g>
</g>
<path d="M99.4149 199.906V199.261L101.831 195.281H102.914V199.253H103.662V199.906H102.914V201.299H102.226V199.906H99.4149ZM100.128 199.253H102.226V195.822H102.209L100.128 199.253ZM104.726 202.21V201.823C105.053 201.763 105.139 201.574 105.139 201.299H104.726V200.284H105.741V201.17C105.741 201.737 105.474 202.159 104.726 202.21ZM106.798 199.906V199.261L109.214 195.281H110.297V199.253H111.045V199.906H110.297V201.299H109.609V199.906H106.798ZM107.511 199.253H109.609V195.822H109.592L107.511 199.253ZM114.207 200.774C115.101 200.774 115.6 200.198 115.6 199.33C115.6 198.47 115.058 197.903 114.181 197.903C113.347 197.903 112.745 198.556 112.745 199.244C112.745 200.13 113.356 200.774 114.207 200.774ZM115.995 196.682L115.342 196.854C115.187 196.261 114.852 195.797 114.129 195.797C113.338 195.797 112.556 196.57 112.547 198.29L112.556 198.298C112.659 198.04 113.175 197.301 114.267 197.301C115.342 197.301 116.287 198.058 116.287 199.321C116.287 200.671 115.376 201.428 114.207 201.428C113.012 201.428 111.808 200.594 111.808 198.384C111.808 196.476 112.797 195.152 114.147 195.152C115.273 195.152 115.84 195.891 115.995 196.682ZM119.374 201.428C117.982 201.428 117.131 200.293 117.131 198.212C117.131 196.183 118.076 195.152 119.374 195.152C120.664 195.152 121.61 196.183 121.61 198.212C121.61 200.293 120.759 201.428 119.374 201.428ZM119.374 200.774C120.372 200.774 120.888 199.811 120.888 198.204C120.888 196.656 120.329 195.805 119.374 195.805C118.412 195.805 117.861 196.656 117.861 198.204C117.861 199.811 118.369 200.774 119.374 200.774ZM122.54 201.299V200.284H123.554V201.299H122.54ZM124.86 201.299V200.757C124.86 200.198 124.946 199.794 125.17 199.468C125.419 199.081 125.866 198.806 126.511 198.462C127.551 197.894 128.076 197.628 128.076 196.863C128.076 196.347 127.732 195.797 126.855 195.797C126.073 195.797 125.557 196.295 125.514 197.189L124.826 197.121C124.878 195.857 125.72 195.152 126.872 195.152C128.11 195.152 128.764 195.96 128.764 196.897C128.764 198.058 127.869 198.47 127.087 198.892C126.382 199.278 126.004 199.45 125.789 199.786C125.651 200.001 125.617 200.233 125.617 200.585H128.781V201.299H124.86ZM129.713 199.76L130.392 199.519C130.581 200.216 131.002 200.774 131.862 200.774C132.713 200.774 133.263 200.216 133.263 199.278C133.263 198.384 132.705 197.86 131.897 197.86C131.183 197.86 130.77 198.247 130.555 198.582L129.919 198.307L130.461 195.281H133.427V195.934H131.002L130.659 197.834L130.667 197.843C130.882 197.559 131.355 197.275 132.043 197.275C133.066 197.275 133.96 198.049 133.96 199.287C133.96 200.611 133.057 201.428 131.862 201.428C130.701 201.428 129.971 200.714 129.713 199.76Z" fill="white"/>
<g opacity="0.4">
<path d="M53.8033 226.097L54.4068 225.978C54.5261 226.909 54.8763 227.363 55.681 227.363C56.4857 227.363 56.8359 226.872 56.8359 226.343C56.8359 225.605 56.441 225.285 55.6959 225.285H55.3233V224.748H55.4798C55.7629 224.748 56.657 224.711 56.657 223.914C56.657 223.37 56.2845 223.042 55.6884 223.042C55.0849 223.042 54.7347 223.422 54.6527 224.033L54.0715 223.929C54.161 223.049 54.8092 222.483 55.6959 222.483C56.5676 222.483 57.2531 222.967 57.2531 223.876C57.2531 224.517 56.7986 224.867 56.441 224.957V224.972C56.9551 225.091 57.432 225.545 57.432 226.358C57.432 227.259 56.7241 227.922 55.6884 227.922C54.69 227.922 53.9523 227.386 53.8033 226.097ZM58.2607 227.811V227.341C58.2607 226.857 58.3352 226.507 58.5289 226.223C58.745 225.888 59.1324 225.65 59.6913 225.352C60.5928 224.86 61.0473 224.629 61.0473 223.966C61.0473 223.519 60.7493 223.042 59.9893 223.042C59.3113 223.042 58.8642 223.474 58.8269 224.249L58.2309 224.189C58.2756 223.094 59.0058 222.483 60.0042 222.483C61.0771 222.483 61.6434 223.183 61.6434 223.996C61.6434 225.002 60.8685 225.359 60.1905 225.724C59.5795 226.06 59.2516 226.209 59.0654 226.499C58.9462 226.685 58.9164 226.887 58.9164 227.192H61.6583V227.811H58.2607Z" fill="#CCFF00"/>
<g opacity="0.7">
<rect x="67.3399" y="213.488" width="17.7678" height="24.6456" rx="0.859731" fill="#CCFF00" fill-opacity="0.4"/>
<rect x="67.3399" y="213.488" width="17.7678" height="24.6456" rx="0.859731" stroke="#CCFF00" stroke-width="0.573154"/>
</g>
</g>
<path d="M98.8272 227.418V226.773L101.243 222.792H102.326V226.764H103.074V227.418H102.326V228.811H101.639V227.418H98.8272ZM99.5408 226.764H101.639V223.334H101.621L99.5408 226.764ZM104.138 229.722V229.335C104.465 229.275 104.551 229.086 104.551 228.811H104.138V227.796H105.153V228.682C105.153 229.249 104.886 229.67 104.138 229.722ZM106.21 227.418V226.773L108.626 222.792H109.709V226.764H110.457V227.418H109.709V228.811H109.021V227.418H106.21ZM106.924 226.764H109.021V223.334H109.004L106.924 226.764ZM113.619 228.286C114.513 228.286 115.012 227.71 115.012 226.842C115.012 225.982 114.47 225.415 113.593 225.415C112.759 225.415 112.158 226.068 112.158 226.756C112.158 227.641 112.768 228.286 113.619 228.286ZM115.407 224.194L114.754 224.366C114.599 223.773 114.264 223.308 113.542 223.308C112.751 223.308 111.968 224.082 111.96 225.801L111.968 225.81C112.072 225.552 112.587 224.813 113.679 224.813C114.754 224.813 115.7 225.569 115.7 226.833C115.7 228.183 114.788 228.94 113.619 228.94C112.424 228.94 111.22 228.106 111.22 225.896C111.22 223.987 112.209 222.663 113.559 222.663C114.685 222.663 115.253 223.403 115.407 224.194ZM118.787 228.94C117.394 228.94 116.543 227.805 116.543 225.724C116.543 223.695 117.489 222.663 118.787 222.663C120.076 222.663 121.022 223.695 121.022 225.724C121.022 227.805 120.171 228.94 118.787 228.94ZM118.787 228.286C119.784 228.286 120.3 227.323 120.3 225.716C120.3 224.168 119.741 223.317 118.787 223.317C117.824 223.317 117.274 224.168 117.274 225.716C117.274 227.323 117.781 228.286 118.787 228.286ZM121.952 228.811V227.796H122.966V228.811H121.952ZM126.396 228.94C125.003 228.94 124.152 227.805 124.152 225.724C124.152 223.695 125.098 222.663 126.396 222.663C127.686 222.663 128.632 223.695 128.632 225.724C128.632 227.805 127.78 228.94 126.396 228.94ZM126.396 228.286C127.394 228.286 127.909 227.323 127.909 225.716C127.909 224.168 127.351 223.317 126.396 223.317C125.433 223.317 124.883 224.168 124.883 225.716C124.883 227.323 125.39 228.286 126.396 228.286ZM131.679 228.94C130.286 228.94 129.435 227.805 129.435 225.724C129.435 223.695 130.38 222.663 131.679 222.663C132.968 222.663 133.914 223.695 133.914 225.724C133.914 227.805 133.063 228.94 131.679 228.94ZM131.679 228.286C132.676 228.286 133.192 227.323 133.192 225.716C133.192 224.168 132.633 223.317 131.679 223.317C130.716 223.317 130.166 224.168 130.166 225.716C130.166 227.323 130.673 228.286 131.679 228.286Z" fill="white"/>
<g opacity="0.4">
<path d="M58.5302 255.322V254.853C58.5302 254.369 58.6047 254.018 58.7984 253.735C59.0145 253.4 59.402 253.161 59.9608 252.863C60.8624 252.372 61.3169 252.141 61.3169 251.478C61.3169 251.03 61.0188 250.554 60.2588 250.554C59.5808 250.554 59.1337 250.986 59.0965 251.761L58.5004 251.701C58.5451 250.606 59.2753 249.995 60.2737 249.995C61.3467 249.995 61.913 250.695 61.913 251.507C61.913 252.513 61.1381 252.871 60.46 253.236C59.849 253.571 59.5212 253.72 59.3349 254.011C59.2157 254.197 59.1859 254.398 59.1859 254.704H61.9279V255.322H58.5302ZM62.579 254.115V253.556L64.6727 250.107H65.6115V253.549H66.2598V254.115H65.6115V255.322H65.0155V254.115H62.579ZM63.1974 253.549H65.0155V250.576H65.0006L63.1974 253.549Z" fill="#CCFF00"/>
<g opacity="0.6">
<rect x="71.9251" y="240.999" width="13.1825" height="24.6456" rx="0.859731" fill="#CCFF00" fill-opacity="0.4"/>
<rect x="71.9251" y="240.999" width="13.1825" height="24.6456" rx="0.859731" stroke="#CCFF00" stroke-width="0.573154"/>
</g>
</g>
<path d="M100.074 254.93V254.285L102.489 250.304H103.573V254.276H104.321V254.93H103.573V256.322H102.885V254.93H100.074ZM100.787 254.276H102.885V250.846H102.868L100.787 254.276ZM105.385 257.234V256.847C105.712 256.787 105.797 256.597 105.797 256.322H105.385V255.308H106.399V256.193C106.399 256.761 106.133 257.182 105.385 257.234ZM107.456 254.93V254.285L109.872 250.304H110.955V254.276H111.703V254.93H110.955V256.322H110.268V254.93H107.456ZM108.17 254.276H110.268V250.846H110.25L108.17 254.276ZM112.424 254.783L113.103 254.543C113.292 255.239 113.713 255.798 114.573 255.798C115.424 255.798 115.974 255.239 115.974 254.302C115.974 253.408 115.416 252.883 114.607 252.883C113.894 252.883 113.481 253.27 113.266 253.606L112.63 253.33L113.172 250.304H116.138V250.958H113.713L113.369 252.858L113.378 252.866C113.593 252.582 114.066 252.299 114.754 252.299C115.777 252.299 116.671 253.072 116.671 254.31C116.671 255.634 115.768 256.451 114.573 256.451C113.412 256.451 112.682 255.738 112.424 254.783ZM117.669 254.938L118.331 254.732C118.468 255.291 118.821 255.806 119.586 255.806C120.489 255.806 121.013 255.05 121.022 253.339H121.005C120.936 253.545 120.506 254.259 119.431 254.259C118.305 254.259 117.428 253.468 117.428 252.213C117.428 250.958 118.357 250.175 119.423 250.175C120.755 250.175 121.701 251.138 121.701 253.322C121.701 255.643 120.747 256.451 119.577 256.451C118.554 256.451 117.884 255.832 117.669 254.938ZM119.474 253.623C120.282 253.623 120.824 253.047 120.824 252.247C120.824 251.448 120.257 250.82 119.423 250.82C118.683 250.82 118.116 251.344 118.116 252.213C118.116 253.072 118.649 253.623 119.474 253.623ZM122.762 256.322V255.308H123.776V256.322H122.762ZM124.833 256.322L127.782 250.983V250.966H124.704V250.304H128.496V251.044L125.65 256.322H124.833ZM129.213 254.783L129.892 254.543C130.081 255.239 130.502 255.798 131.362 255.798C132.213 255.798 132.763 255.239 132.763 254.302C132.763 253.408 132.205 252.883 131.397 252.883C130.683 252.883 130.27 253.27 130.055 253.606L129.419 253.33L129.961 250.304H132.927V250.958H130.502L130.159 252.858L130.167 252.866C130.382 252.582 130.855 252.299 131.543 252.299C132.566 252.299 133.46 253.072 133.46 254.31C133.46 255.634 132.557 256.451 131.362 256.451C130.201 256.451 129.471 255.738 129.213 254.783Z" fill="white"/>
<g opacity="0.4">
<path d="M50.5107 281.118L51.1142 280.999C51.2335 281.93 51.5837 282.385 52.3884 282.385C53.1931 282.385 53.5433 281.893 53.5433 281.364C53.5433 280.627 53.1484 280.306 52.4033 280.306H52.0307V279.77H52.1872C52.4703 279.77 53.3644 279.732 53.3644 278.935C53.3644 278.391 52.9919 278.063 52.3958 278.063C51.7923 278.063 51.4421 278.443 51.3601 279.054L50.7789 278.95C50.8684 278.071 51.5166 277.505 52.4033 277.505C53.275 277.505 53.9605 277.989 53.9605 278.898C53.9605 279.539 53.506 279.889 53.1484 279.978V279.993C53.6625 280.112 54.1393 280.567 54.1393 281.379C54.1393 282.281 53.4315 282.944 52.3958 282.944C51.3974 282.944 50.6597 282.407 50.5107 281.118ZM57.0171 282.378C57.792 282.378 58.2242 281.878 58.2242 281.126C58.2242 280.381 57.7547 279.889 56.9947 279.889C56.272 279.889 55.7504 280.455 55.7504 281.051C55.7504 281.819 56.2794 282.378 57.0171 282.378ZM58.5669 278.831L58.0006 278.98C57.8665 278.466 57.5759 278.063 56.95 278.063C56.2645 278.063 55.5865 278.734 55.579 280.224L55.5865 280.232C55.6759 280.008 56.123 279.367 57.0692 279.367C58.0006 279.367 58.8202 280.023 58.8202 281.118C58.8202 282.288 58.0304 282.944 57.0171 282.944C55.9814 282.944 54.9383 282.221 54.9383 280.306C54.9383 278.652 55.7951 277.505 56.9649 277.505C57.941 277.505 58.4328 278.145 58.5669 278.831Z" fill="#CCFF00"/>
<g opacity="0.5">
<rect x="65.0473" y="268.509" width="20.0604" height="24.6456" rx="0.859731" fill="#CCFF00" fill-opacity="0.4"/>
<rect x="65.0473" y="268.509" width="20.0604" height="24.6456" rx="0.859731" stroke="#CCFF00" stroke-width="0.573154"/>
</g>
</g>
<path d="M99.4989 282.439V281.794L101.915 277.814H102.998V281.786H103.746V282.439H102.998V283.832H102.31V282.439H99.4989ZM100.212 281.786H102.31V278.356H102.293L100.212 281.786ZM104.81 284.743V284.356C105.137 284.296 105.223 284.107 105.223 283.832H104.81V282.818H105.825V283.703C105.825 284.27 105.558 284.692 104.81 284.743ZM106.882 282.439V281.794L109.298 277.814H110.381V281.786H111.129V282.439H110.381V283.832H109.693V282.439H106.882ZM107.595 281.786H109.693V278.356H109.676L107.595 281.786ZM111.849 282.293L112.528 282.052C112.717 282.749 113.139 283.308 113.998 283.308C114.85 283.308 115.4 282.749 115.4 281.812C115.4 280.918 114.841 280.393 114.033 280.393C113.319 280.393 112.907 280.78 112.692 281.115L112.055 280.84L112.597 277.814H115.563V278.467H113.139L112.795 280.367L112.803 280.376C113.018 280.092 113.491 279.808 114.179 279.808C115.202 279.808 116.096 280.582 116.096 281.82C116.096 283.144 115.193 283.961 113.998 283.961C112.838 283.961 112.107 283.247 111.849 282.293ZM117.094 282.448L117.756 282.242C117.894 282.8 118.246 283.316 119.011 283.316C119.914 283.316 120.439 282.56 120.447 280.849H120.43C120.361 281.055 119.931 281.769 118.857 281.769C117.73 281.769 116.853 280.978 116.853 279.723C116.853 278.467 117.782 277.685 118.848 277.685C120.181 277.685 121.126 278.648 121.126 280.832C121.126 283.153 120.172 283.961 119.003 283.961C117.98 283.961 117.309 283.342 117.094 282.448ZM118.9 281.132C119.708 281.132 120.249 280.556 120.249 279.757C120.249 278.957 119.682 278.33 118.848 278.33C118.109 278.33 117.541 278.854 117.541 279.723C117.541 280.582 118.074 281.132 118.9 281.132ZM122.187 283.832V282.818H123.201V283.832H122.187ZM124.43 282.293L125.11 282.052C125.299 282.749 125.72 283.308 126.58 283.308C127.431 283.308 127.981 282.749 127.981 281.812C127.981 280.918 127.422 280.393 126.614 280.393C125.901 280.393 125.488 280.78 125.273 281.115L124.637 280.84L125.178 277.814H128.144V278.467H125.72L125.376 280.367L125.385 280.376C125.6 280.092 126.072 279.808 126.76 279.808C127.783 279.808 128.677 280.582 128.677 281.82C128.677 283.144 127.775 283.961 126.58 283.961C125.419 283.961 124.688 283.247 124.43 282.293ZM131.679 283.961C130.286 283.961 129.435 282.826 129.435 280.746C129.435 278.717 130.38 277.685 131.679 277.685C132.968 277.685 133.914 278.717 133.914 280.746C133.914 282.826 133.063 283.961 131.679 283.961ZM131.679 283.308C132.676 283.308 133.192 282.345 133.192 280.737C133.192 279.189 132.633 278.338 131.679 278.338C130.716 278.338 130.166 279.189 130.166 280.737C130.166 282.345 130.673 283.308 131.679 283.308Z" fill="white"/>
<g opacity="0.4">
<rect x="75.3641" y="296.021" width="9.74362" height="24.6456" rx="0.859731" fill="#CCFF00" fill-opacity="0.4"/>
<rect x="75.3641" y="296.021" width="9.74362" height="24.6456" rx="0.859731" stroke="#CCFF00" stroke-width="0.573154"/>
</g>
</g>
<path d="M8.8783 226.383H47.5662" stroke="white" stroke-width="0.573154" stroke-dasharray="1.15 2.29"/>
<path d="M146.435 226.383L223.238 226.383" stroke="white" stroke-width="0.573154" stroke-dasharray="1.15 2.29"/>
<rect x="18.0486" y="189.129" width="52.7302" height="18.3409" rx="9.17046" fill="#CCFF00"/>
<rect x="18.0486" y="189.129" width="52.7302" height="18.3409" rx="9.17046" fill="black" fill-opacity="0.4"/>
<path d="M33.8395 199.405V197.713H32.3567V197.222H33.8395V195.716H34.3759V197.222H35.8587V197.713H34.3759V199.405H33.8395ZM37.8584 200.299V195.791L36.7333 196.499V195.828L37.9329 195.083H38.4322V200.299H37.8584Z" fill="black"/>
<path d="M43.0925 200.299V195.083H43.7109V199.733H45.976V200.299H43.0925ZM46.848 200.299V195.083H47.7198L49.3515 199.084H49.3664L50.9982 195.083H51.87V200.299H51.2665V195.947H51.2516L49.4559 200.299H49.2621L47.4664 195.947H47.4515V200.299H46.848ZM54.3256 200.299V195.649H52.7087V195.083H56.546V195.649H54.9366V200.299H54.3256Z" fill="black"/>
<rect x="18.0486" y="-3.45117" width="52.7302" height="18.3409" rx="9.17046" fill="#CCFF00"/>
<rect x="18.0486" y="-3.45117" width="52.7302" height="18.3409" rx="9.17046" fill="black" fill-opacity="0.4"/>
<path d="M34.3395 6.82463V5.13325H32.8567V4.64149H34.3395V3.13638H34.8759V4.64149H36.3587V5.13325H34.8759V6.82463H34.3395ZM38.3584 7.71875V3.21089L37.2333 3.91874V3.24815L38.4329 2.50305H38.9322V7.71875H38.3584Z" fill="black"/>
<path d="M43.3248 5.92306L43.973 5.79639C44.1146 6.75012 44.435 7.24934 45.4409 7.24934C46.2605 7.24934 46.6181 6.80973 46.6181 6.34777C46.6181 5.87835 46.4318 5.65482 45.1801 5.24502C44.0624 4.88737 43.5632 4.50737 43.5632 3.76227C43.5632 3.03952 44.1593 2.39128 45.2024 2.39128C46.1412 2.39128 46.8863 2.85324 47.0205 3.82933L46.3946 3.96344C46.2828 3.38972 45.9997 2.97991 45.2024 2.97991C44.5095 2.97991 44.1891 3.34501 44.1891 3.76227C44.1891 4.14227 44.3456 4.32854 45.4856 4.70109C46.9013 5.16306 47.2365 5.54306 47.2365 6.31796C47.2365 7.13012 46.6032 7.83052 45.4185 7.83052C44.1593 7.83052 43.4812 7.15992 43.3248 5.92306ZM49.2094 7.71875V3.06932H47.5925V2.50305H51.4298V3.06932H49.8204V7.71875H49.2094ZM52.2698 7.71875V2.50305H54.2741C55.2949 2.50305 56.0177 3.06187 56.0177 4.11246C56.0177 5.14815 55.3247 5.70698 54.289 5.70698H52.8882V7.71875H52.2698ZM52.8882 5.1407H54.2518C54.8553 5.1407 55.3918 4.82776 55.3918 4.11246C55.3918 3.35991 54.8404 3.06932 54.2369 3.06932H52.8882V5.1407Z" fill="black"/>
<rect x="161.91" y="51.5723" width="52.7302" height="18.3409" rx="9.17046" fill="#FF4C4C"/>
<rect x="161.91" y="51.5723" width="52.7302" height="18.3409" rx="9.17046" fill="black" fill-opacity="0.4"/>
<path d="M176.742 60.4771V59.9257H179.194V60.4771H176.742ZM181.196 62.7422V58.2343L180.071 58.9422V58.2716L181.271 57.5265H181.77V62.7422H181.196Z" fill="black"/>
<path d="M186.454 62.7422V57.5265H187.073V62.1759H189.338V62.7422H186.454ZM190.21 62.7422V57.5265H191.081L192.713 61.5277H192.728L194.36 57.5265H195.232V62.7422H194.628V58.3908H194.613L192.817 62.7422H192.624L190.828 58.3908H190.813V62.7422H190.21ZM197.687 62.7422V58.0928H196.07V57.5265H199.908V58.0928H198.298V62.7422H197.687Z" fill="black"/>
<g filter="url(#filter0_d_1218_36085)">
<rect x="15.756" y="158.178" width="201.177" height="25.4631" rx="12.7315" fill="url(#paint0_linear_1218_36085)" fill-opacity="0.12" shape-rendering="crispEdges"/>
<rect x="16.0426" y="158.464" width="200.604" height="24.8899" rx="12.445" stroke="url(#paint1_linear_1218_36085)" stroke-opacity="0.3" stroke-width="0.573154" shape-rendering="crispEdges"/>
<rect x="18.0487" y="160.471" width="65.053" height="20.8778" rx="10.4389" fill="#CCFF00"/>
<path d="M34.4124 173.91V167.892H36.9658C38.0577 167.892 38.7369 168.631 38.7369 169.508C38.7369 170.059 38.4618 170.428 38.0835 170.652V170.66C38.5735 170.867 38.9604 171.34 38.9604 172.036C38.9604 172.586 38.797 173.059 38.436 173.412C38.1007 173.73 37.6364 173.91 36.7079 173.91H34.4124ZM35.5731 172.835H36.9744C37.4301 172.835 37.7998 172.681 37.7998 172.036C37.7998 171.537 37.4817 171.262 36.983 171.262H35.5731V172.835ZM35.5731 170.316H36.8197C37.2839 170.316 37.5762 170.093 37.5762 169.654C37.5762 169.19 37.2839 168.967 36.8197 168.967H35.5731V170.316ZM39.8094 172.294V169.354H40.927V172.173C40.927 172.767 41.1505 172.964 41.6148 172.964C42.1048 172.964 42.5175 172.741 42.5175 172.088V169.354H43.6352V173.91H42.5691V173.472H42.5519C42.4057 173.669 42.0189 174.039 41.3655 174.039C40.2564 174.039 39.8094 173.3 39.8094 172.294ZM45.1346 175.845L46.0459 173.687L44.2233 169.354H45.3582L46.536 172.44H46.5532L47.731 169.354H48.8659L46.2437 175.845H45.1346ZM51.6297 173.91V167.892H52.7903V172.835H55.2749V173.91H51.6297ZM56.0305 173.91V167.892H57.2255L58.9708 171.795H58.988L60.7332 167.892H61.9369V173.91H60.802V170.213H60.7848L59.074 173.91H58.8848L57.174 170.213H57.1568V173.91H56.0305ZM64.413 173.91V168.967H62.6506V167.892H67.3361V168.967H65.5736V173.91H64.413Z" fill="black"/>
<path d="M98.7066 172.758V171.675L100.994 167.892H102.756V171.683H103.461V172.758H102.756V173.91H101.664V172.758H98.7066ZM99.8759 171.683H101.664V168.743H101.647L99.8759 171.683ZM104.261 175.062V174.478C104.665 174.409 104.683 174.254 104.683 173.91H104.261V172.689H105.542V173.773C105.542 174.469 105.19 174.993 104.261 175.062ZM106.341 172.758V171.675L108.628 167.892H110.391V171.683H111.096V172.758H110.391V173.91H109.299V172.758H106.341ZM107.511 171.683H109.299V168.743H109.282L107.511 171.683ZM112.962 171.873C112.962 172.569 113.392 172.982 114.106 172.982C114.802 172.982 115.154 172.492 115.154 171.881C115.154 171.271 114.776 170.807 114.063 170.807C113.349 170.807 112.962 171.331 112.962 171.873ZM112.773 170.6L112.782 170.609C112.936 170.359 113.409 169.912 114.252 169.912C115.223 169.912 116.229 170.583 116.229 171.924C116.229 173.265 115.249 174.039 114.106 174.039C112.696 174.039 111.595 173.05 111.595 170.961C111.595 169.242 112.515 167.763 114.088 167.763C115.275 167.763 115.859 168.511 116.023 169.319L114.974 169.594C114.819 169.027 114.492 168.795 114.011 168.795C113.28 168.795 112.807 169.526 112.773 170.6ZM119.13 174.039C117.797 174.039 116.817 173.111 116.817 170.807C116.817 168.735 117.797 167.763 119.13 167.763C120.462 167.763 121.442 168.735 121.442 170.807C121.442 173.111 120.462 174.039 119.13 174.039ZM119.13 172.964C119.877 172.964 120.282 172.466 120.282 170.807C120.282 169.379 119.877 168.838 119.13 168.838C118.382 168.838 117.977 169.379 117.977 170.807C117.977 172.466 118.382 172.964 119.13 172.964ZM122.117 173.91V172.689H123.398V173.91H122.117ZM124.369 172.414L125.46 171.95C125.641 172.56 126.062 172.982 126.673 172.982C127.283 172.982 127.808 172.629 127.808 171.873C127.808 171.116 127.292 170.764 126.698 170.764C126.105 170.764 125.718 171.073 125.495 171.408L124.592 170.953L125.117 167.892H128.332V168.967H125.993L125.761 170.325L125.77 170.334C125.83 170.239 126.208 169.887 126.991 169.887C128.04 169.887 128.917 170.703 128.917 171.907C128.917 173.283 127.893 174.039 126.673 174.039C125.417 174.039 124.687 173.326 124.369 172.414ZM131.728 174.039C130.395 174.039 129.415 173.111 129.415 170.807C129.415 168.735 130.395 167.763 131.728 167.763C133.06 167.763 134.04 168.735 134.04 170.807C134.04 173.111 133.06 174.039 131.728 174.039ZM131.728 172.964C132.476 172.964 132.88 172.466 132.88 170.807C132.88 169.379 132.476 168.838 131.728 168.838C130.98 168.838 130.576 169.379 130.576 170.807C130.576 172.466 130.98 172.964 131.728 172.964Z" fill="white"/>
<rect x="149.588" y="160.471" width="65.053" height="20.8778" rx="10.4389" fill="#FF4C4C"/>
<path d="M166.626 171.898L167.847 171.632C167.984 172.517 168.242 172.964 169.042 172.964C169.669 172.964 170.116 172.741 170.116 172.268C170.116 171.795 169.91 171.632 168.56 171.211C167.262 170.807 166.841 170.256 166.841 169.474C166.841 168.588 167.563 167.763 168.87 167.763C169.927 167.763 170.89 168.253 171.105 169.405L169.979 169.689C169.832 169.225 169.549 168.838 168.87 168.838C168.251 168.838 167.984 169.104 167.984 169.465C167.984 169.826 168.182 169.912 169.514 170.368C170.873 170.832 171.251 171.314 171.251 172.191C171.251 173.24 170.409 174.039 169.042 174.039C167.7 174.039 166.806 173.343 166.626 171.898ZM174.965 172.337L175.747 173.025C175.369 173.575 174.81 174.039 173.865 174.039C172.609 174.039 171.707 173.111 171.707 171.632C171.707 170.153 172.627 169.225 173.813 169.225C174.999 169.225 175.902 170.153 175.902 171.632V171.967H172.841C172.876 172.672 173.237 173.05 173.847 173.05C174.432 173.05 174.741 172.655 174.965 172.337ZM172.841 171.133H174.819C174.767 170.557 174.415 170.205 173.813 170.205C173.246 170.205 172.884 170.626 172.841 171.133ZM176.744 173.91V167.634H177.905V173.91H176.744ZM179.055 173.91V167.634H180.215V173.91H179.055ZM183.156 171.898L184.377 171.632C184.514 172.517 184.772 172.964 185.572 172.964C186.199 172.964 186.646 172.741 186.646 172.268C186.646 171.795 186.44 171.632 185.09 171.211C183.792 170.807 183.371 170.256 183.371 169.474C183.371 168.588 184.093 167.763 185.4 167.763C186.457 167.763 187.42 168.253 187.635 169.405L186.509 169.689C186.363 169.225 186.079 168.838 185.4 168.838C184.781 168.838 184.514 169.104 184.514 169.465C184.514 169.826 184.712 169.912 186.045 170.368C187.403 170.832 187.781 171.314 187.781 172.191C187.781 173.24 186.939 174.039 185.572 174.039C184.231 174.039 183.336 173.343 183.156 171.898ZM189.7 173.91V168.967H187.938V167.892H192.623V168.967H190.861V173.91H189.7ZM193.344 173.91V167.892H195.785C196.997 167.892 197.857 168.623 197.857 169.809C197.857 170.97 197.083 171.718 195.785 171.718H194.504V173.91H193.344ZM194.504 170.643H195.768C196.275 170.643 196.654 170.316 196.654 169.809C196.654 169.173 196.207 168.967 195.768 168.967H194.504V170.643Z" fill="black"/>
</g>
<mask id="path-77-outside-1_1218_36085" maskUnits="userSpaceOnUse" x="2.00024" y="42.4004" width="229" height="41" fill="black">
<rect fill="white" x="2.00024" y="42.4004" width="229" height="41"/>
<path d="M2.00024 42.4004H230.116V82.1561H2.00024V42.4004Z"/>
</mask>
<path d="M2.00024 42.4004H230.116V82.1561H2.00024V42.4004Z" fill="black"/>
<path d="M230.116 81.5829H2.00024V82.7292H230.116V81.5829Z" fill="#30363A" mask="url(#path-77-outside-1_1218_36085)"/>
<path d="M17.8107 58.5055V56.5883H16.0998V55.7286H17.8107V53.992H18.7134V55.7286H20.4243V56.5883H18.7134V58.5055H17.8107ZM21.0978 57.2675L22.3186 57.001C22.4476 57.7404 22.6883 58.196 23.3159 58.2992V56.6141C21.8114 56.1757 21.3471 55.5911 21.3471 54.8431C21.3471 54.0005 22.0435 53.2096 23.3159 53.1408V52.6164H23.7887V53.1494C24.7688 53.2268 25.5684 53.7168 25.8177 54.7485L24.7344 55.0666C24.5883 54.6711 24.3304 54.3015 23.7887 54.2327V55.6598C25.5082 56.1843 25.9725 56.7259 25.9725 57.5598C25.9725 58.6517 25.1385 59.3653 23.7887 59.4083V60.1218H23.3159V59.3911C22.1037 59.2793 21.2697 58.5829 21.0978 57.2675ZM23.7887 56.7517V58.3336C24.4335 58.3336 24.8376 58.0929 24.8376 57.6028C24.8376 57.1902 24.6141 57.001 23.7887 56.7517ZM22.4905 54.8259C22.4905 55.144 22.6969 55.3073 23.3159 55.5051V54.2155C22.7055 54.2413 22.4905 54.525 22.4905 54.8259ZM26.6479 57.7834L27.7397 57.3191C27.9203 57.9295 28.3415 58.3508 28.9519 58.3508C29.5623 58.3508 30.0868 57.9983 30.0868 57.2417C30.0868 56.4852 29.5709 56.1327 28.9777 56.1327C28.3845 56.1327 27.9976 56.4422 27.7741 56.7775L26.8714 56.3218L27.3958 53.2612H30.6112V54.3358H28.2728L28.0406 55.6942L28.0492 55.7028C28.1094 55.6082 28.4877 55.2558 29.27 55.2558C30.3189 55.2558 31.1958 56.0725 31.1958 57.2761C31.1958 58.6517 30.1728 59.4083 28.9519 59.4083C27.6967 59.4083 26.966 58.6947 26.6479 57.7834Z" fill="#CCFF00"/>
<path d="M17.0822 70.713H17.9987C19.0418 70.713 19.6975 70.1393 19.6975 68.664C19.6975 67.3303 19.0493 66.6299 18.0434 66.6299H17.0822V70.713ZM16.4638 71.2793V66.0636H18.0955C19.2504 66.0636 20.3532 66.8609 20.3532 68.664C20.3532 70.6609 19.2057 71.2793 18.0508 71.2793H16.4638ZM23.5966 71.2793V70.8471H23.5817C23.4699 71.0409 23.0825 71.3911 22.3746 71.3911C21.4507 71.3911 21.0409 70.8695 21.0409 70.266C21.0409 69.6103 21.406 69.275 22.3672 69.0291C23.075 68.8503 23.4997 68.7385 23.4997 68.3511C23.4997 68.0381 23.2688 67.7624 22.6727 67.7624C22.0543 67.7624 21.8084 68.1052 21.7115 68.5448L21.1601 68.3883C21.2793 67.7252 21.7935 67.2185 22.6503 67.2185C23.5146 67.2185 24.1331 67.6134 24.1331 68.6193V71.2793H23.5966ZM22.5088 69.4985C21.8009 69.6922 21.637 69.9009 21.637 70.2287C21.637 70.5864 21.8307 70.8471 22.4194 70.8471C23.1719 70.8471 23.537 70.4522 23.537 70.0126V69.0291H23.5221C23.4699 69.1409 23.3209 69.275 22.5088 69.4985ZM25.3313 72.9558L26.1211 70.862L24.6384 67.3303H25.2792L26.3968 70.0573H26.4117L27.4176 67.3303H28.0435L25.9199 72.9558H25.3313ZM30.649 71.2793V66.0636H32.6533C33.6741 66.0636 34.3968 66.6224 34.3968 67.673C34.3968 68.7087 33.7039 69.2675 32.6682 69.2675H31.2674V71.2793H30.649ZM31.2674 68.7012H32.631C33.2345 68.7012 33.771 68.3883 33.771 67.673C33.771 66.9205 33.2196 66.6299 32.6161 66.6299H31.2674V68.7012ZM39.2212 71.0334L38.491 70.4001C38.3121 70.8918 37.7757 71.3911 36.7996 71.3911C35.8757 71.3911 34.9741 70.9366 34.9741 69.886C34.9741 69.342 35.2349 68.7162 35.9874 68.2393C35.7117 67.9636 35.4957 67.6656 35.4957 67.1961C35.4957 66.5181 36.0321 65.9518 36.8592 65.9518C37.5968 65.9518 38.1408 66.3542 38.2749 67.1067L37.7235 67.226C37.6266 66.8012 37.3957 66.5032 36.8666 66.5032C36.3749 66.5032 36.1066 66.8087 36.1066 67.1887C36.1066 67.5165 36.2706 67.7103 36.5388 67.9412L38.0961 69.3048V68.3585H38.6474V69.7742L39.5937 70.5864L39.2212 71.0334ZM38.0141 70.0126L36.3972 68.5969C35.8533 68.895 35.5702 69.3495 35.5702 69.8487C35.5702 70.5193 36.1737 70.8099 36.8741 70.8099C37.4851 70.8099 37.9098 70.4746 38.0141 70.0126ZM40.4302 71.2793V66.0636H41.0487V70.713H43.3138V71.2793H40.4302Z" fill="white"/>
<path d="M110.113 58.5055V56.5883H108.402V55.7286H110.113V53.992H111.015V55.7286H112.726V56.5883H111.015V58.5055H110.113ZM113.4 57.2675L114.621 57.001C114.75 57.7404 114.99 58.196 115.618 58.2992V56.6141C114.113 56.1757 113.649 55.5911 113.649 54.8431C113.649 54.0005 114.345 53.2096 115.618 53.1408V52.6164H116.091V53.1494C117.071 53.2268 117.87 53.7168 118.12 54.7485L117.036 55.0666C116.89 54.6711 116.632 54.3015 116.091 54.2327V55.6598C117.81 56.1843 118.274 56.7259 118.274 57.5598C118.274 58.6517 117.44 59.3653 116.091 59.4083V60.1218H115.618V59.3911C114.406 59.2793 113.572 58.5829 113.4 57.2675ZM116.091 56.7517V58.3336C116.735 58.3336 117.14 58.0929 117.14 57.6028C117.14 57.1902 116.916 57.001 116.091 56.7517ZM114.792 54.8259C114.792 55.144 114.999 55.3073 115.618 55.5051V54.2155C115.007 54.2413 114.792 54.525 114.792 54.8259ZM118.95 57.7834L120.042 57.3191C120.222 57.9295 120.643 58.3508 121.254 58.3508C121.864 58.3508 122.389 57.9983 122.389 57.2417C122.389 56.4852 121.873 56.1327 121.28 56.1327C120.686 56.1327 120.3 56.4422 120.076 56.7775L119.173 56.3218L119.698 53.2612H122.913V54.3358H120.575L120.343 55.6942L120.351 55.7028C120.411 55.6082 120.79 55.2558 121.572 55.2558C122.621 55.2558 123.498 56.0725 123.498 57.2761C123.498 58.6517 122.475 59.4083 121.254 59.4083C119.999 59.4083 119.268 58.6947 118.95 57.7834Z" fill="#CCFF00"/>
<path d="M94.1404 70.3852V68.6938H92.6576V68.202H94.1404V66.6969H94.6769V68.202H96.1596V68.6938H94.6769V70.3852H94.1404ZM98.1594 71.2793V66.7714L97.0343 67.4793V66.8087L98.2339 66.0636H98.7331V71.2793H98.1594ZM104.96 69.2377V68.5373H104.945C104.923 68.6044 104.819 68.6714 104.61 68.7311L104.185 68.8503C103.865 68.9397 103.731 69.0514 103.731 69.3346C103.731 69.6848 104.051 69.7891 104.357 69.7891C104.647 69.7891 104.96 69.6177 104.96 69.2377ZM105.422 70.6981L105.623 71.0334C105.415 71.1899 104.938 71.3911 104.379 71.3911C102.814 71.3911 102.047 70.2436 102.047 68.7012C102.047 67.1514 102.926 65.9593 104.424 65.9593C105.929 65.9593 106.719 67.1365 106.719 68.6267C106.719 69.8338 106.301 70.2064 105.683 70.2064C105.385 70.2064 105.154 70.0722 105.042 69.8711H105.027C104.908 70.0573 104.655 70.2064 104.282 70.2064C103.701 70.2064 103.276 69.8711 103.276 69.342C103.276 68.8801 103.53 68.6342 104.059 68.4852L104.454 68.3734C104.781 68.284 104.96 68.2244 104.96 68.0009C104.96 67.7699 104.804 67.5687 104.409 67.5687C104.074 67.5687 103.88 67.7326 103.798 68.1052L103.395 68.0083C103.455 67.4867 103.872 67.1589 104.394 67.1589C104.968 67.1589 105.392 67.4569 105.392 68.0828V69.4985C105.392 69.7146 105.474 69.8114 105.698 69.8114C106.13 69.8114 106.316 69.4314 106.316 68.6416C106.316 67.3601 105.72 66.3393 104.424 66.3393C103.142 66.3393 102.457 67.3601 102.457 68.7012C102.457 70.0126 103.053 71.0036 104.379 71.0036C104.826 71.0036 105.221 70.8322 105.422 70.6981ZM109.14 70.0722V69.5134L111.233 66.0636H112.172V69.506H112.82V70.0722H112.172V71.2793H111.576V70.0722H109.14ZM109.758 69.506H111.576V66.533H111.561L109.758 69.506ZM113.735 72.0691V71.7338C114.018 71.6817 114.093 71.5177 114.093 71.2793H113.735V70.4001H114.614V71.1675C114.614 71.6593 114.383 72.0244 113.735 72.0691ZM115.523 70.0722V69.5134L117.617 66.0636H118.555V69.506H119.204V70.0722H118.555V71.2793H117.959V70.0722H115.523ZM116.141 69.506H117.959V66.533H117.944L116.141 69.506ZM121.936 70.8248C122.711 70.8248 123.143 70.3256 123.143 69.573C123.143 68.8279 122.674 68.3362 121.914 68.3362C121.191 68.3362 120.67 68.9024 120.67 69.4985C120.67 70.266 121.199 70.8248 121.936 70.8248ZM123.486 67.2781L122.92 67.4271C122.786 66.913 122.495 66.5107 121.869 66.5107C121.184 66.5107 120.506 67.1812 120.498 68.6714L120.506 68.6789C120.595 68.4554 121.042 67.8146 121.988 67.8146C122.92 67.8146 123.739 68.4703 123.739 69.5656C123.739 70.7354 122.95 71.3911 121.936 71.3911C120.901 71.3911 119.857 70.6683 119.857 68.7534C119.857 67.0993 120.714 65.9518 121.884 65.9518C122.86 65.9518 123.352 66.5926 123.486 67.2781ZM126.407 71.3911C125.2 71.3911 124.463 70.4075 124.463 68.6044C124.463 66.846 125.282 65.9518 126.407 65.9518C127.525 65.9518 128.345 66.846 128.345 68.6044C128.345 70.4075 127.607 71.3911 126.407 71.3911ZM126.407 70.8248C127.272 70.8248 127.719 69.9903 127.719 68.5969C127.719 67.2558 127.234 66.5181 126.407 66.5181C125.573 66.5181 125.096 67.2558 125.096 68.5969C125.096 69.9903 125.536 70.8248 126.407 70.8248ZM129.143 71.2793V70.4001H130.022V71.2793H129.143ZM132.987 71.3911C131.78 71.3911 131.042 70.4075 131.042 68.6044C131.042 66.846 131.862 65.9518 132.987 65.9518C134.105 65.9518 134.924 66.846 134.924 68.6044C134.924 70.4075 134.187 71.3911 132.987 71.3911ZM132.987 70.8248C133.851 70.8248 134.298 69.9903 134.298 68.5969C134.298 67.2558 133.814 66.5181 132.987 66.5181C132.152 66.5181 131.676 67.2558 131.676 68.5969C131.676 69.9903 132.115 70.8248 132.987 70.8248ZM137.557 71.3911C136.35 71.3911 135.613 70.4075 135.613 68.6044C135.613 66.846 136.432 65.9518 137.557 65.9518C138.675 65.9518 139.495 66.846 139.495 68.6044C139.495 70.4075 138.757 71.3911 137.557 71.3911ZM137.557 70.8248C138.422 70.8248 138.869 69.9903 138.869 68.5969C138.869 67.2558 138.384 66.5181 137.557 66.5181C136.723 66.5181 136.246 67.2558 136.246 68.5969C136.246 69.9903 136.686 70.8248 137.557 70.8248Z" fill="white"/>
<path d="M210.532 58.1273V57.044L212.819 53.2612H214.581V57.0526H215.286V58.1273H214.581V59.2793H213.489V58.1273H210.532ZM211.701 57.0526H213.489V54.1123H213.472L211.701 57.0526Z" fill="white"/>
<path d="M188.068 71.2793V66.0636H190.072C191.093 66.0636 191.816 66.6224 191.816 67.673C191.816 68.7087 191.123 69.2675 190.087 69.2675H188.686V71.2793H188.068ZM188.686 68.7012H190.05C190.653 68.7012 191.19 68.3883 191.19 67.673C191.19 66.9205 190.638 66.6299 190.035 66.6299H188.686V68.7012ZM195.276 70.0648L195.768 70.3852C195.507 70.8993 194.978 71.3911 194.114 71.3911C193.056 71.3911 192.281 70.5864 192.281 69.3048C192.281 68.0232 193.041 67.2185 194.084 67.2185C195.12 67.2185 195.858 67.986 195.858 69.3048V69.4836H192.892C192.899 70.184 193.279 70.8397 194.099 70.8397C194.896 70.8397 195.135 70.3256 195.276 70.0648ZM192.907 68.9993H195.254C195.239 68.4256 194.941 67.7699 194.084 67.7699C193.235 67.7699 192.914 68.515 192.907 68.9993ZM196.807 71.2793V67.3303H197.403V67.7103H197.418C197.626 67.4346 198.066 67.2185 198.528 67.2185C199.377 67.2185 199.951 67.7699 199.951 68.6863V71.2793H199.347V68.8801C199.347 68.1648 199.057 67.7773 198.438 67.7773C197.835 67.7773 197.418 68.135 197.418 68.7609V71.2793H196.807ZM203.686 69.9679V68.746C203.686 68.2914 203.328 67.7699 202.672 67.7699C201.882 67.7699 201.473 68.3436 201.473 69.3048C201.473 70.266 201.882 70.8397 202.672 70.8397C203.268 70.8397 203.686 70.4224 203.686 69.9679ZM203.745 71.2793V70.8993H203.73C203.566 71.093 203.164 71.3911 202.575 71.3911C201.532 71.3911 200.862 70.5715 200.862 69.3048C200.862 68.0158 201.622 67.2185 202.575 67.2185C203.112 67.2185 203.47 67.4718 203.671 67.7103H203.686V65.8401H204.297V71.2793H203.745ZM205.548 71.2793V67.3303H206.159V71.2793H205.548ZM205.504 66.533V65.8401H206.204V66.533H205.504ZM207.411 71.2793V67.3303H208.007V67.7103H208.022C208.231 67.4346 208.67 67.2185 209.132 67.2185C209.982 67.2185 210.555 67.7699 210.555 68.6863V71.2793H209.952V68.8801C209.952 68.1648 209.661 67.7773 209.043 67.7773C208.439 67.7773 208.022 68.135 208.022 68.7609V71.2793H207.411ZM211.764 71.9946L212.278 71.7338C212.427 72.1436 212.681 72.5236 213.314 72.5236C213.955 72.5236 214.312 72.1287 214.312 71.4656V70.9366H214.297C214.119 71.1452 213.783 71.3911 213.202 71.3911C212.174 71.3911 211.466 70.5938 211.466 69.3048C211.466 68.0158 212.233 67.2185 213.195 67.2185C213.694 67.2185 214.066 67.4122 214.305 67.7103H214.32V67.3303H214.916V71.3389C214.916 72.4864 214.297 73.0675 213.329 73.0675C212.487 73.0675 211.973 72.6056 211.764 71.9946ZM214.312 69.9828V68.7311C214.312 68.284 213.947 67.7699 213.292 67.7699C212.509 67.7699 212.077 68.3436 212.077 69.3048C212.077 70.266 212.502 70.8397 213.292 70.8397C213.888 70.8397 214.312 70.4299 214.312 69.9828Z" fill="white"/>
<rect width="228.115" height="69.2188" transform="translate(2.00024 -8.03711)" fill="black"/>
<path d="M96.5112 46.8477L99.6062 40.3138L100.096 40.5373L97.0013 47.054L96.5112 46.8477ZM101.028 46.7188V40.7006H102.034L103.917 45.3174H103.934L105.817 40.7006H106.823V46.7188H106.126V41.6979H106.109L104.037 46.7188H103.813L101.742 41.6979H101.724V46.7188H101.028ZM108.401 46.7188V40.7006H112.02V41.354H109.114V43.3056H111.78V43.9418H109.114V46.0654H112.02V46.7188H108.401ZM112.994 44.6468L113.742 44.5006C113.906 45.6011 114.275 46.1771 115.436 46.1771C116.382 46.1771 116.794 45.6699 116.794 45.1368C116.794 44.5952 116.579 44.3373 115.135 43.8644C113.845 43.4518 113.269 43.0133 113.269 42.1536C113.269 41.3196 113.957 40.5717 115.161 40.5717C116.244 40.5717 117.104 41.1047 117.258 42.231L116.536 42.3857C116.407 41.7237 116.081 41.2509 115.161 41.2509C114.361 41.2509 113.991 41.6721 113.991 42.1536C113.991 42.592 114.172 42.807 115.487 43.2368C117.121 43.7699 117.508 44.2083 117.508 45.1025C117.508 46.0396 116.777 46.8477 115.41 46.8477C113.957 46.8477 113.175 46.074 112.994 44.6468ZM118.613 46.7188V40.7006H119.619L121.502 45.3174H121.519L123.402 40.7006H124.408V46.7188H123.711V41.6979H123.694L121.622 46.7188H121.399L119.327 41.6979H119.31V46.7188H118.613ZM125.72 46.7188V46.1771C125.72 45.6183 125.806 45.2142 126.029 44.8875C126.278 44.5006 126.725 44.2255 127.37 43.8816C128.411 43.3142 128.935 43.0477 128.935 42.2825C128.935 41.7667 128.591 41.2165 127.714 41.2165C126.932 41.2165 126.416 41.7151 126.373 42.6092L125.685 42.5405C125.737 41.2767 126.579 40.5717 127.731 40.5717C128.969 40.5717 129.623 41.3798 129.623 42.3169C129.623 43.4776 128.729 43.8902 127.946 44.3115C127.241 44.6984 126.863 44.8703 126.648 45.2056C126.511 45.4206 126.476 45.6527 126.476 46.0052H129.64V46.7188H125.72ZM130.572 45.1798L131.251 44.9391C131.44 45.6355 131.862 46.1943 132.721 46.1943C133.572 46.1943 134.123 45.6355 134.123 44.6984C134.123 43.8043 133.564 43.2798 132.756 43.2798C132.042 43.2798 131.629 43.6667 131.415 44.002L130.778 43.7269L131.32 40.7006H134.286V41.354H131.862L131.518 43.254L131.526 43.2626C131.741 42.9789 132.214 42.6952 132.902 42.6952C133.925 42.6952 134.819 43.469 134.819 44.707C134.819 46.031 133.916 46.8477 132.721 46.8477C131.561 46.8477 130.83 46.1341 130.572 45.1798Z" fill="white"/>
<g opacity="0.6">
<path d="M91.7745 55.8585L89.6252 53.2793L87.4758 55.8585L91.7745 55.8585Z" fill="#CCFF00"/>
<path d="M95.9452 55.2187V54.6599L98.0389 51.2101H98.9778V54.6524H99.626V55.2187H98.9778V56.4258H98.3817V55.2187H95.9452ZM96.5636 54.6524H98.3817V51.6795H98.3668L96.5636 54.6524ZM100.243 55.0921L100.831 54.8834C100.995 55.487 101.36 55.9713 102.105 55.9713C102.843 55.9713 103.32 55.487 103.32 54.6748C103.32 53.8999 102.836 53.4454 102.135 53.4454C101.517 53.4454 101.159 53.7807 100.973 54.0713L100.421 53.8328L100.891 51.2101H103.461V51.7764H101.36L101.062 53.423L101.07 53.4305C101.256 53.1846 101.666 52.9387 102.262 52.9387C103.149 52.9387 103.923 53.6093 103.923 54.6822C103.923 55.8297 103.141 56.5375 102.105 56.5375C101.1 56.5375 100.466 55.9191 100.243 55.0921ZM104.835 56.4258V55.5466H105.714V56.4258H104.835ZM106.771 55.0921L107.36 54.8834C107.524 55.487 107.889 55.9713 108.634 55.9713C109.372 55.9713 109.849 55.487 109.849 54.6748C109.849 53.8999 109.364 53.4454 108.664 53.4454C108.045 53.4454 107.688 53.7807 107.502 54.0713L106.95 53.8328L107.42 51.2101H109.99V51.7764H107.889L107.591 53.423L107.598 53.4305C107.785 53.1846 108.194 52.9387 108.791 52.9387C109.677 52.9387 110.452 53.6093 110.452 54.6822C110.452 55.8297 109.67 56.5375 108.634 56.5375C107.628 56.5375 106.995 55.9191 106.771 55.0921ZM113.046 56.5375C111.838 56.5375 111.101 55.554 111.101 53.7509C111.101 51.9924 111.92 51.0983 113.046 51.0983C114.163 51.0983 114.983 51.9924 114.983 53.7509C114.983 55.554 114.245 56.5375 113.046 56.5375ZM113.046 55.9713C113.91 55.9713 114.357 55.1368 114.357 53.7434C114.357 52.4022 113.873 51.6646 113.046 51.6646C112.211 51.6646 111.734 52.4022 111.734 53.7434C111.734 55.1368 112.174 55.9713 113.046 55.9713ZM119.556 57.6179L119.22 57.8936C119.012 57.6925 117.737 56.1799 117.737 54.2054C117.737 52.052 119.012 50.7705 119.22 50.5693L119.57 50.8524C118.892 51.5975 118.274 52.5215 118.274 54.1979C118.274 55.636 118.922 56.8356 119.556 57.6179ZM120.331 55.0921L120.919 54.8834C121.083 55.487 121.448 55.9713 122.194 55.9713C122.931 55.9713 123.408 55.487 123.408 54.6748C123.408 53.8999 122.924 53.4454 122.223 53.4454C121.605 53.4454 121.247 53.7807 121.061 54.0713L120.51 53.8328L120.979 51.2101H123.55V51.7764H121.448L121.15 53.423L121.158 53.4305C121.344 53.1846 121.754 52.9387 122.35 52.9387C123.237 52.9387 124.012 53.6093 124.012 54.6822C124.012 55.8297 123.229 56.5375 122.194 56.5375C121.188 56.5375 120.554 55.9191 120.331 55.0921ZM124.923 56.4258V55.5466H125.802V56.4258H124.923ZM126.927 56.4258V55.9564C126.927 55.4721 127.001 55.1219 127.195 54.8387C127.411 54.5034 127.798 54.265 128.357 53.967C129.259 53.4752 129.713 53.2442 129.713 52.5811C129.713 52.134 129.415 51.6571 128.655 51.6571C127.977 51.6571 127.53 52.0893 127.493 52.8642L126.897 52.8046C126.941 51.7093 127.672 51.0983 128.67 51.0983C129.743 51.0983 130.309 51.7987 130.309 52.6109C130.309 53.6168 129.534 53.9744 128.856 54.3395C128.245 54.6748 127.918 54.8238 127.731 55.1144C127.612 55.3007 127.582 55.5019 127.582 55.8073H130.324V56.4258H126.927ZM131.124 55.0921L131.713 54.8834C131.877 55.487 132.242 55.9713 132.987 55.9713C133.725 55.9713 134.202 55.487 134.202 54.6748C134.202 53.8999 133.717 53.4454 133.017 53.4454C132.398 53.4454 132.041 53.7807 131.855 54.0713L131.303 53.8328L131.773 51.2101H134.343V51.7764H132.242L131.944 53.423L131.951 53.4305C132.138 53.1846 132.547 52.9387 133.144 52.9387C134.03 52.9387 134.805 53.6093 134.805 54.6822C134.805 55.8297 134.023 56.5375 132.987 56.5375C131.981 56.5375 131.348 55.9191 131.124 55.0921ZM136.87 53.6689C137.346 53.6689 137.592 53.2368 137.592 52.5885C137.592 51.9179 137.309 51.5975 136.87 51.5975C136.43 51.5975 136.154 51.9179 136.154 52.5885C136.154 53.2368 136.393 53.6689 136.87 53.6689ZM136.87 54.1383C136.109 54.1383 135.64 53.5571 135.64 52.5811C135.64 51.5975 136.266 51.1207 136.87 51.1207C137.473 51.1207 138.106 51.5975 138.106 52.5811C138.106 53.5199 137.63 54.1383 136.87 54.1383ZM140.416 56.0458C140.893 56.0458 141.139 55.6136 141.139 54.9654C141.139 54.2948 140.856 53.9744 140.416 53.9744C139.977 53.9744 139.701 54.2948 139.701 54.9654C139.701 55.6136 139.939 56.0458 140.416 56.0458ZM140.416 56.5152C139.656 56.5152 139.187 55.934 139.187 54.9579C139.187 53.9744 139.813 53.4975 140.416 53.4975C141.02 53.4975 141.653 53.9744 141.653 54.9579C141.653 55.8968 141.176 56.5152 140.416 56.5152ZM136.564 56.7164L140.208 50.6438L140.588 50.8822L136.951 56.9474L136.564 56.7164ZM142.803 57.8936L142.468 57.6179C143.101 56.8356 143.749 55.636 143.749 54.1979C143.749 52.5215 143.131 51.5975 142.453 50.8524L142.803 50.5693C143.012 50.7705 144.286 52.052 144.286 54.2054C144.286 56.1799 143.012 57.6925 142.803 57.8936Z" fill="#CCFF00"/>
</g>
<path d="M23.5664 48.6947L27.1732 45.0879L26.3627 44.2773L22.7559 47.8841L19.1491 44.2773L18.3385 45.0879L21.9453 48.6947L18.3385 52.3015L19.1491 53.1121L22.7559 49.5053L26.3627 53.1121L27.1732 52.3015L23.5664 48.6947Z" fill="white"/>
<path fill-rule="evenodd" clip-rule="evenodd" d="M191.718 42.8457L180.828 53.7356L181.638 54.5462L183.051 53.1338C184.039 53.9424 185.302 54.4274 186.678 54.4274C189.843 54.4274 192.409 51.8613 192.409 48.6959C192.409 47.3196 191.924 46.0567 191.116 45.0686L192.528 43.6563L191.718 42.8457ZM190.3 45.8843L183.866 52.3182C184.643 52.9217 185.618 53.2811 186.678 53.2811C189.21 53.2811 191.263 51.2283 191.263 48.6959C191.263 47.6363 190.904 46.6607 190.3 45.8843Z" fill="white"/>
<path d="M186.678 44.1107C187.318 44.1107 187.927 44.2417 188.48 44.4784L189.34 43.6187C188.544 43.2008 187.639 42.9644 186.678 42.9644C183.512 42.9644 180.946 45.5305 180.946 48.6959C180.946 49.6568 181.183 50.5624 181.601 51.3578L182.46 50.4981C182.224 49.9449 182.093 49.3357 182.093 48.6959C182.093 46.1636 184.145 44.1107 186.678 44.1107Z" fill="white"/>
<path d="M212.183 43.5371H213.616V44.6892H214.762V45.8355H213.616V46.976H212.183V45.8355H204.446V44.6892H212.183V43.5371Z" fill="white"/>
<path d="M205.592 46.976H207.025V48.1281H214.762V49.2744H207.025V50.415H205.592V49.2744H204.446V48.1281H205.592V46.976Z" fill="white"/>
<path d="M210.32 50.415H208.888V51.567H204.446V52.7133H208.888V53.8539H210.32V52.7133H214.762V51.567H210.32V50.415Z" fill="white"/>
</g>
<rect x="1.59793" y="3.59793" width="229.361" height="298.804" rx="17.8278" stroke="white" stroke-opacity="0.25" stroke-width="0.804135"/>
<defs>
<filter id="filter0_d_1218_36085" x="13.4634" y="155.885" width="205.762" height="32.3407" filterUnits="userSpaceOnUse" color-interpolation-filters="sRGB">
<feFlood flood-opacity="0" result="BackgroundImageFix"/>
<feColorMatrix in="SourceAlpha" type="matrix" values="0 0 0 0 0 0 0 0 0 0 0 0 0 0 0 0 0 0 127 0" result="hardAlpha"/>
<feOffset dy="2.29262"/>
<feGaussianBlur stdDeviation="1.14631"/>
<feComposite in2="hardAlpha" operator="out"/>
<feColorMatrix type="matrix" values="0 0 0 0 0 0 0 0 0 0 0 0 0 0 0 0 0 0 0.25 0"/>
<feBlend mode="normal" in2="BackgroundImageFix" result="effect1_dropShadow_1218_36085"/>
<feBlend mode="normal" in="SourceGraphic" in2="effect1_dropShadow_1218_36085" result="shape"/>
</filter>
<linearGradient id="paint0_linear_1218_36085" x1="15.756" y1="170.909" x2="216.933" y2="170.909" gradientUnits="userSpaceOnUse">
<stop stop-color="#CCFF00"/>
<stop offset="0.62" stop-color="#CCFF00"/>
<stop offset="1" stop-color="#FF6E6E"/>
</linearGradient>
<linearGradient id="paint1_linear_1218_36085" x1="214.88" y1="170.909" x2="13.7032" y2="170.909" gradientUnits="userSpaceOnUse">
<stop stop-color="#FF6E6E"/>
<stop offset="0.41" stop-color="#CCFF00"/>
<stop offset="1" stop-color="#CCFF00"/>
</linearGradient>
<clipPath id="clip0_1218_36085">
<rect x="2" y="4" width="228.557" height="298" rx="17.4257" fill="white"/>
</clipPath>
<clipPath id="clip1_1218_36085">
<rect width="196.592" height="547.935" fill="white" transform="translate(18.0486 -144.447)"/>
</clipPath>
</defs>
</svg>
