<svg width="40" height="40" viewBox="0 0 40 40" fill="none" xmlns="http://www.w3.org/2000/svg">
<path opacity="0.2" d="M36.25 8.75V18.75L26.25 8.75H36.25Z" fill="#C5A063"/>
<path d="M36.2497 7.5H26.2497C26.0023 7.49981 25.7605 7.57301 25.5547 7.71035C25.349 7.84769 25.1886 8.04298 25.0939 8.27151C24.9993 8.50004 24.9745 8.75153 25.0228 8.99413C25.0711 9.23674 25.1903 9.45956 25.3653 9.63438L29.4825 13.75L21.2497 21.9828L15.8841 16.6156C15.768 16.4994 15.6301 16.4072 15.4784 16.3443C15.3266 16.2814 15.164 16.249 14.9997 16.249C14.8354 16.249 14.6728 16.2814 14.521 16.3443C14.3693 16.4072 14.2314 16.4994 14.1153 16.6156L2.86534 27.8656C2.63079 28.1002 2.49902 28.4183 2.49902 28.75C2.49902 29.0817 2.63079 29.3998 2.86534 29.6344C3.09989 29.8689 3.41801 30.0007 3.74972 30.0007C4.08142 30.0007 4.39954 29.8689 4.63409 29.6344L14.9997 19.2672L20.3653 24.6344C20.4814 24.7506 20.6193 24.8428 20.771 24.9057C20.9228 24.9686 21.0854 25.001 21.2497 25.001C21.414 25.001 21.5766 24.9686 21.7284 24.9057C21.8801 24.8428 22.018 24.7506 22.1341 24.6344L31.2497 15.5172L35.3653 19.6344C35.5402 19.8094 35.763 19.9286 36.0056 19.9769C36.2482 20.0252 36.4997 20.0005 36.7282 19.9058C36.9567 19.8111 37.152 19.6507 37.2894 19.445C37.4267 19.2392 37.4999 18.9974 37.4997 18.75V8.75C37.4997 8.41848 37.368 8.10054 37.1336 7.86612C36.8992 7.6317 36.5812 7.5 36.2497 7.5ZM34.9997 15.7328L29.2669 10H34.9997V15.7328Z" fill="#C5A063"/>
</svg>
