<svg width="40" height="40" viewBox="0 0 40 40" fill="none" xmlns="http://www.w3.org/2000/svg">
<path opacity="0.2" d="M33.75 20C33.75 22.7195 32.9436 25.3779 31.4327 27.6391C29.9218 29.9003 27.7744 31.6626 25.2619 32.7033C22.7494 33.744 19.9848 34.0163 17.3175 33.4858C14.6503 32.9552 12.2003 31.6457 10.2773 29.7227C8.35432 27.7997 7.04476 25.3497 6.51421 22.6825C5.98366 20.0153 6.25596 17.2506 7.29666 14.7381C8.33737 12.2256 10.0997 10.0782 12.3609 8.56729C14.6221 7.05642 17.2805 6.25 20 6.25C23.6467 6.25 27.1441 7.69866 29.7227 10.2773C32.3013 12.8559 33.75 16.3533 33.75 20Z" fill="#C5A063"/>
<path d="M35 7.49999V15C35 15.3315 34.8683 15.6495 34.6339 15.8839C34.3995 16.1183 34.0815 16.25 33.75 16.25H26.25C25.9185 16.25 25.6005 16.1183 25.3661 15.8839C25.1317 15.6495 25 15.3315 25 15C25 14.6685 25.1317 14.3505 25.3661 14.1161C25.6005 13.8817 25.9185 13.75 26.25 13.75H30.7328L28.4469 11.4641C26.1237 9.13031 22.9695 7.81367 19.6766 7.80312H19.6063C16.3409 7.79546 13.2038 9.07355 10.8734 11.3609C10.6347 11.5838 10.3183 11.7044 9.99179 11.6969C9.66531 11.6894 9.35472 11.5544 9.12647 11.3209C8.89822 11.0873 8.77044 10.7737 8.77045 10.4471C8.77047 10.1206 8.89829 9.80696 9.12656 9.57343C11.9508 6.81311 15.7497 5.27793 19.6988 5.30104C23.6479 5.32415 27.4285 6.90369 30.2203 9.69687L32.5 11.9828V7.49999C32.5 7.16847 32.6317 6.85053 32.8661 6.61611C33.1005 6.38169 33.4185 6.24999 33.75 6.24999C34.0815 6.24999 34.3995 6.38169 34.6339 6.61611C34.8683 6.85053 35 7.16847 35 7.49999ZM29.1266 28.6391C26.7732 30.9379 23.6084 32.2162 20.3187 32.1969C17.0289 32.1776 13.8794 30.8622 11.5531 28.5359L9.26719 26.25H13.75C14.0815 26.25 14.3995 26.1183 14.6339 25.8839C14.8683 25.6495 15 25.3315 15 25C15 24.6685 14.8683 24.3505 14.6339 24.1161C14.3995 23.8817 14.0815 23.75 13.75 23.75H6.25C5.91848 23.75 5.60054 23.8817 5.36612 24.1161C5.1317 24.3505 5 24.6685 5 25V32.5C5 32.8315 5.1317 33.1495 5.36612 33.3839C5.60054 33.6183 5.91848 33.75 6.25 33.75C6.58152 33.75 6.89946 33.6183 7.13388 33.3839C7.3683 33.1495 7.5 32.8315 7.5 32.5V28.0172L9.78594 30.3031C12.5738 33.105 16.36 34.6853 20.3125 34.6969H20.3953C24.3142 34.707 28.0793 33.1728 30.875 30.4266C31.1033 30.193 31.2311 29.8794 31.2311 29.5529C31.2311 29.2263 31.1033 28.9127 30.8751 28.6791C30.6468 28.4456 30.3363 28.3106 30.0098 28.3031C29.6833 28.2956 29.3668 28.4162 29.1281 28.6391H29.1266Z" fill="#C5A063"/>
</svg>
