<svg width="33" height="32" viewBox="0 0 33 32" fill="none" xmlns="http://www.w3.org/2000/svg">
<path opacity="0.2" d="M27.667 6H5.66699C5.40178 6 5.14742 6.10536 4.95989 6.29289C4.77235 6.48043 4.66699 6.73478 4.66699 7V24C4.66699 24.2652 4.77235 24.5196 4.95989 24.7071C5.14742 24.8946 5.40178 25 5.66699 25H27.667C27.9322 25 28.1866 24.8946 28.3741 24.7071C28.5616 24.5196 28.667 24.2652 28.667 24V7C28.667 6.73478 28.5616 6.48043 28.3741 6.29289C28.1866 6.10536 27.9322 6 27.667 6ZM19.667 21C18.6781 21 17.7114 20.7068 16.8891 20.1573C16.0669 19.6079 15.426 18.827 15.0476 17.9134C14.6692 16.9998 14.5701 15.9945 14.7631 15.0245C14.956 14.0546 15.4322 13.1637 16.1315 12.4645C16.8307 11.7652 17.7216 11.289 18.6915 11.0961C19.6614 10.9031 20.6668 11.0022 21.5804 11.3806C22.494 11.759 23.2749 12.3999 23.8243 13.2221C24.3737 14.0444 24.667 15.0111 24.667 16C24.667 16.6566 24.5377 17.3068 24.2864 17.9134C24.0351 18.52 23.6668 19.0712 23.2025 19.5355C22.7382 19.9998 22.187 20.3681 21.5804 20.6194C20.9738 20.8707 20.3236 21 19.667 21Z" fill="#C5A063"/>
<path d="M27.667 5H5.66699C5.13656 5 4.62785 5.21071 4.25278 5.58579C3.87771 5.96086 3.66699 6.46957 3.66699 7V24C3.66699 24.5304 3.87771 25.0391 4.25278 25.4142C4.62785 25.7893 5.13656 26 5.66699 26H7.66699V28C7.66699 28.2652 7.77235 28.5196 7.95989 28.7071C8.14742 28.8946 8.40178 29 8.66699 29C8.93221 29 9.18656 28.8946 9.3741 28.7071C9.56164 28.5196 9.66699 28.2652 9.66699 28V26H23.667V28C23.667 28.2652 23.7723 28.5196 23.9599 28.7071C24.1474 28.8946 24.4018 29 24.667 29C24.9322 29 25.1866 28.8946 25.3741 28.7071C25.5616 28.5196 25.667 28.2652 25.667 28V26H27.667C28.1974 26 28.7061 25.7893 29.0812 25.4142C29.4563 25.0391 29.667 24.5304 29.667 24V7C29.667 6.46957 29.4563 5.96086 29.0812 5.58579C28.7061 5.21071 28.1974 5 27.667 5ZM27.667 24H5.66699V7H27.667V15H25.582C25.3313 13.5166 24.5324 12.1815 23.3437 11.2594C22.1551 10.3372 20.6633 9.89521 19.1642 10.021C17.665 10.1468 16.2678 10.8312 15.2494 11.9386C14.2311 13.046 13.6659 14.4956 13.6659 16C13.6659 17.5044 14.2311 18.954 15.2494 20.0614C16.2678 21.1688 17.665 21.8532 19.1642 21.979C20.6633 22.1048 22.1551 21.6628 23.3437 20.7406C24.5324 19.8185 25.3313 18.4834 25.582 17H27.667V24ZM21.397 15C21.1769 14.6187 20.8371 14.3207 20.4303 14.1522C20.0236 13.9838 19.5726 13.9542 19.1473 14.0681C18.722 14.1821 18.3463 14.4332 18.0782 14.7825C17.8102 15.1318 17.6649 15.5597 17.6649 16C17.6649 16.4403 17.8102 16.8682 18.0782 17.2175C18.3463 17.5668 18.722 17.8179 19.1473 17.9319C19.5726 18.0458 20.0236 18.0162 20.4303 17.8478C20.8371 17.6793 21.1769 17.3813 21.397 17H23.542C23.2986 17.9427 22.7198 18.7642 21.914 19.3106C21.1082 19.857 20.1308 20.0908 19.165 19.9681C18.1992 19.8454 17.3113 19.3747 16.6677 18.6442C16.0241 17.9137 15.669 16.9736 15.669 16C15.669 15.0264 16.0241 14.0863 16.6677 13.3558C17.3113 12.6253 18.1992 12.1546 19.165 12.0319C20.1308 11.9092 21.1082 12.143 21.914 12.6894C22.7198 13.2358 23.2986 14.0573 23.542 15H21.397Z" fill="#C5A063"/>
</svg>
